<!-- Created with Inkscape (http://www.inkscape.org/) -->

<svg version="1.1" id="svg1" width="800" height="800" viewBox="0 0 800 800" xmlns="http://www.w3.org/2000/svg"
    xmlns:svg="http://www.w3.org/2000/svg">
    <g id="g1">
        <g id="g2">
            <path fill="#da5742" stroke="none"
                d="m 392.80243,516.89255 c -2.52515,17.09784 -10.31702,34.26733 -14.84876,51 -12.81854,47.33044 -26.1481,97.66363 -26.15124,147 -0.001,23.21332 -0.22736,59.60199 24,72.00384 30.92639,15.83112 54.31555,-19.66852 54.98535,-47.00384 1.26694,-51.70502 -26.13529,-97.83979 -34.55017,-148 -2.84214,-16.94171 -3.43518,-33.86719 -3.43518,-51 0,-6.86182 2.51724,-17.82837 0,-24 z"
                id="path65" />
            <g fill="#0a0403" stroke="navy">
                <path
                    d="m 384.80243,267.89255 c 6.6448,28.72201 28.13968,55.75262 53,70.99615 6.44586,3.95239 22.92459,16.19049 30.25772,7.57019 8.00534,-9.41049 -5.81504,-22.03204 -11.83335,-27.44983 -20.60879,-18.55236 -45.7507,-40.0534 -71.42437,-51.11651 z"
                    id="path49" />
                <path
                    d="m 418.80243,220.89255 c 14.02435,19.74438 42.85009,33.95282 65,42.2276 7.20514,2.69171 22.6473,10.98504 26.95138,-0.27155 4.03293,-10.54736 -11.13006,-16.23626 -17.95138,-20.10571 -21.29575,-12.08026 -49.31635,-21.83399 -74,-21.85034 z"
                    id="path35" />
                <path
                    d="m 373.80243,224.89255 c -3.67847,-7.19953 -14.42136,-12.46082 -21,-17.02472 -15.84919,-10.99524 -29.64392,-25.66388 -47,-34.21912 -7.30591,-3.60126 -21.4636,-11.27228 -26.67826,-0.73688 -4.85275,9.8042 11.08255,19.53357 17.67826,24.08338 24.26306,16.737 49.16848,21.19458 77,27.89734 z"
                    id="path20" />
                <path
                    d="m 445.80243,174.89255 c 18.98254,10.16662 47.17355,8 68,8 4.33032,0 20.91674,2.3775 21.45373,-4.21375 0.67298,-8.26092 -14.22381,-13.23694 -20.45373,-13.69598 -22.35523,-1.64722 -48.34403,0.75378 -69,9.90973 z"
                    id="path16" />
                <path
                    d="m 431.80243,160.89255 c 24.72284,-16.35077 48.39486,-39.80677 67.90664,-62.003848 4.39197,-4.996399 11.18503,-24.925659 3.6597,-29.964538 -7.34415,-4.917542 -22.0715,9.078674 -26.10184,13.969177 -12.37484,15.016052 -22.35037,32.115169 -31.88888,48.999209 -5.01538,8.87768 -11.42676,18.97003 -13.57562,29 z"
                    id="path5" />
            </g>
            <path fill="#da5742" stroke="none"
                d="m 390.80243,93.892547 h -2 c -3.52271,-8.319885 -11.45353,-15.820556 -18,-21.910522 -31.861,-29.639282 -71.08057,-29.468506 -99.38504,4.910522 -5.67575,6.89386 -17.90894,20.529969 -17.83101,30.000003 0.029,3.52154 2.76378,6.90332 4.18828,10 2.57839,5.6051 5.05987,11.53296 10.0679,15.44287 9.04413,7.06097 22.19043,5.88312 31.95987,11.99695 12.87481,8.05719 20.44888,18.46972 11,32.56018 l 32,24.57483 31,23.42517 -44,-10.82178 -36,-19.46912 -20,-0.62884 -18.44291,-22.54785 -17.55709,-5.53241 c -3.09404,10.46747 -0.71213,23.50366 1.39968,34 5.86702,29.1607 20.99692,56.33801 37.09568,81 45.23126,69.29059 107.93609,134.09121 119.50464,220 8.88586,-6.06302 14.15753,-29.0361 18.42129,-39 13.98551,-32.68253 34.14389,-64.47257 45.57871,-98 -9.62931,-0.41986 -20.25858,-3.79019 -23.21064,-14 -1.22924,-4.25138 0.40955,-9.73041 -2.39276,-13.38504 -4.93747,-6.43915 -13.2897,-10.85486 -18.97223,-16.78473 -14.17715,-14.79425 -24.11139,-32.42893 -30.42437,-51.83023 24.324,14.88971 53.0852,31.32876 72,53 h 1 c 2.93667,-9.61383 18.33191,-4.02109 23,1 h 1 l 20,-37 c -5.03675,-3.44013 -23.00043,-15.40558 -19,-22 v -1 c -22.87448,-4.07758 -48.04871,-25.18073 -64,-41 24.93457,0.0688 44.65887,13.91516 67.98535,18.74768 5.10583,1.05774 10.45779,-6.35321 16.01465,-7.26544 8.46847,-1.3902 15.12732,4.6914 22,8.51776 l 17,-42 c -10.81672,-4.03186 -40.34989,0.0518 -42,-16 l -54,-7 v -1 c 18.63217,-6.06275 37.34927,-10 57,-10 1.1885,-3.06781 2.71624,-5.55219 5.09414,-7.89508 15.59378,-15.36414 27.66776,-0.75952 42.90586,4.89508 0,-18.32007 0.0475,-34.30561 -6.00306,-52 -1.46008,-4.26984 -4.01519,-13.708865 -8.38739,-15.842593 -4.25116,-2.074646 -14.69049,4.247681 -19.60955,4.763855 -4.82428,0.506226 -12.80713,-1.318176 -16.98536,0.290161 -7.66558,2.950807 -14.37072,13.782717 -20.18441,19.364197 -15.42594,14.80981 -32.1366,27.97968 -47.83023,42.42438 10.18713,-30.36011 31.64291,-55.73401 49,-82.000003 -9.41874,-9.535278 17.58468,-21.640319 7.3966,-32.030883 -6.12051,-6.242127 -20.27795,-6.966004 -28.3966,-6.969117 -30.89347,-0.01196 -60.42151,24.222107 -69,54 z"
                id="path3" />
        </g>
    </g>
    <g transform="translate(0.000000,800.000000) scale(0.100000,-0.100000)" fill="#EEEEEE" stroke="none" id="g23">
        <path
            d="M5215 7883 c-87 -18 -202 -71 -272 -124 l-53 -40 3 -133 2 -133 -46 -69 c-79 -120 -78 -117 -65 -147 l11 -28 55 42 c102 77 178 99 201 58 20 -38 7 -186 -21 -244 -14 -28 -23 -54 -22 -58 1 -5 -8 -17 -20 -27 -17 -14 -19 -19 -8 -20 8 0 24 13 34 29 17 25 24 28 58 23 53 -7 178 15 230 40 96 46 118 75 133 175 8 54 48 112 106 157 79 60 99 411 27 483 -33 32 -235 42 -353 16z"
            id="path13" />
        <path
            d="M1771 7092 c-132 -71 -100 -191 120 -447 215 -251 262 -284 411 -293 50 -3 75 -8 71 -15 -4 -6 -1 -7 8 -2 18 11 88 6 114 -8 11 -6 23 -11 26 -10 23 7 112 -137 102 -164 -3 -7 2 -13 11 -13 10 0 16 -7 14 -16 -7 -37 148 -89 214 -72 l56 14 32 -33 c35 -35 53 -43 44 -18 -4 8 -10 15 -15 15 -5 0 -31 20 -57 44 -26 24 -66 60 -89 81 -50 44 -63 87 -39 133 34 66 125 58 287 -24 l46 -23 16 53 c38 119 2 196 -129 272 -24 14 -42 30 -38 35 3 5 -1 6 -9 3 -17 -6 -187 38 -248 65 -58 26 -66 35 -128 156 -106 202 -163 240 -381 249 -74 4 -180 13 -235 21 -132 19 -164 19 -204 -3z"
            id="path15" />
        <path
            d="M5729 6655 c-41 -7 -101 -20 -132 -29 l-57 -17 -2 -67 c-5 -153 -6 -152 92 -152 36 0 72 -5 80 -11 11 -7 -15 -9 -89 -7 -85 3 -105 7 -116 22 -7 9 -19 18 -27 20 -7 1 -33 16 -57 34 -23 17 -53 34 -65 38 -21 7 -21 7 -1 14 13 5 -12 10 -67 15 -102 9 -175 -22 -235 -97 -45 -55 -45 -56 60 -60 102 -3 154 -23 215 -81 77 -74 36 -97 -178 -97 -173 0 -188 -5 -143 -48 70 -66 117 -82 248 -82 40 0 86 -5 101 -10 34 -13 208 -46 285 -54 31 -3 78 -15 104 -27 112 -49 458 21 497 101 47 97 63 287 33 400 -41 157 -275 241 -546 195z"
            id="path17" />
        <path
            d="M4970 5671 c-25 -10 -46 -26 -48 -35 -2 -9 -8 -16 -13 -16 -6 0 -7 6 -3 13 4 6 3 8 -1 4 -24 -22 -8 -39 82 -88 129 -70 164 -132 111 -194 -36 -41 -82 -42 -180 -6 -46 17 -92 31 -102 31 -9 0 -34 9 -56 20 -59 30 -63 24 -5 -8 41 -22 52 -34 59 -64 9 -34 23 -47 70 -62 10 -4 16 -12 13 -20 -3 -8 9 -22 33 -35 20 -11 43 -28 50 -36 7 -8 28 -15 46 -15 136 0 407 -109 509 -204 104 -97 205 -123 355 -93 105 20 104 18 108 137 5 125 -15 223 -69 328 -50 99 -55 104 -114 134 -82 42 -123 50 -285 57 -171 7 -208 18 -290 88 -89 77 -183 99 -270 64z"
            id="path19" />
        <path
            d="M4598 4842 c-36 -22 -36 -22 17 -71 202 -186 51 -335 -185 -182 l-65 42 -3 -60 c-3 -60 34 -171 51 -154 4 3 7 -2 8 -13 0 -10 3 -14 5 -8 3 8 23 6 67 -8 50 -16 82 -19 164 -16 l103 5 11 -34 c20 -62 92 -144 175 -200 12 -8 4 -7 -19 2 -55 21 -95 52 -113 88 -72 141 -159 157 -217 39 -99 -200 -103 -185 68 -267 206 -99 479 -165 679 -165 43 0 69 42 92 149 38 183 -65 342 -303 465 -134 69 -203 135 -282 271 -29 50 -57 92 -62 93 -5 2 -6 9 -2 15 3 7 3 9 -2 5 -4 -4 -23 -1 -42 7 -47 20 -112 18 -145 -3z"
            id="path21" />
    </g>
</svg>
