<!-- Created with Inkscape (http://www.inkscape.org/) -->

<svg version="1.1" id="svg1" width="800" height="800" viewBox="0 0 800 800" xmlns="http://www.w3.org/2000/svg"
    xmlns:svg="http://www.w3.org/2000/svg">
    <g id="g1">
        <g id="g9" transform="translate(3.0786118,16.712479)">
            <path fill="#ae1c25"
                d="M 284.62737,746.39741 C 249.437,709.79501 230.89149,662.63496 231.42673,611.1116 c 0.0761,-7.32311 -0.13929,-13.59235 -0.47859,-13.93165 -2.31283,-2.31282 -29.088,31.37042 -40.14012,50.49638 -1.75387,3.03511 -3.40576,4.22232 -3.47852,2.5 -0.0174,-0.4125 -0.71233,-5.475 -1.54424,-11.25 l -1.51257,-10.5 -0.59438,-23.66924 -0.59438,-23.66923 1.2082,-14.33077 c 2.92933,-34.74552 11.2421,-70.08695 23.6922,-100.72652 3.04038,-7.48233 5.77123,-14.39092 6.06857,-15.35242 l 0.5406,-1.74818 -6.86616,-3.21192 c -3.77638,-1.76655 -10.85534,-5.41211 -15.73101,-8.10124 l -8.86485,-4.88934 -1.21789,1.34943 c -0.66983,0.74219 -7.86717,19.79943 -15.99408,42.34943 -8.1269,22.55 -15.1911,41.675 -15.6982,42.5 l -0.92201,1.5 0.78095,-8 c 0.42951,-4.4 0.77136,-17.9 0.75965,-30 l -0.0213,-22 -2.24192,-7.80931 c -1.23306,-4.29513 -3.34299,-9.98216 -4.68873,-12.63786 l -2.44681,-4.82853 -4.24476,-3.63336 -4.24476,-3.63336 -4.04522,-1.09299 c -2.22487,-0.60115 -4.61767,-1.2563 -5.31733,-1.45589 -1.33057,-0.37957 -10.22789,-17.81769 -10.22789,-20.04594 v -1.2824 l 6.25,-1.93596 c 3.4375,-1.06478 25.83372,-8.28286 49.76938,-16.04018 23.93565,-7.75732 43.81344,-14.10422 44.17286,-14.10422 0.35942,0 2.90839,4.72046 5.6644,10.4899 11.88103,24.87186 28.70403,38.57716 56.64336,46.146 l 10,2.70903 19,0.0193 19,0.0193 9.83721,-2.65633 9.83721,-2.65632 10.51075,-5.02088 c 30.96461,-14.79147 55.90377,-40.69697 69.4682,-72.15994 3.92793,-9.11091 9.82733,-29.20535 9.84025,-33.51769 0.0102,-3.41542 1.02201,-3.79418 33.00638,-12.35585 62.03231,-16.60501 128.58816,-36.16853 184,-54.08522 30.58551,-9.88942 33,-10.57679 33,-9.39458 0,2.06793 -22.08953,23.46003 -34.21507,33.1348 l -6.90373,5.50838 -5.5639,7.52351 c -8.87354,11.99881 -22.46765,32.77987 -30.07074,45.96855 -8.48871,14.72493 -16.44632,25.48196 -23.86892,32.2658 -8.13811,7.43777 -8.66063,7.16835 -4.38514,-2.26102 1.64587,-3.6299 3.95342,-10.10243 5.12789,-14.3834 l 2.1354,-7.78359 0.11064,-7.50492 0.11064,-7.50491 -2.01637,-3.5 -2.01638,-3.5 -3.91301,-1.92354 -3.91302,-1.92353 -10.05915,1.24666 c -53.03175,6.57241 -77.89977,17.93602 -96.21844,43.96767 -2.56714,3.64801 -7.96899,10.77743 -12.00411,15.84317 -4.03513,5.06573 -7.33659,9.63928 -7.33659,10.16345 0,1.4774 11.54355,10.81818 21.38398,17.30344 10.32986,6.80781 21.84794,12.45785 33.04434,16.20947 l 7.92832,2.65657 0.8877,-0.8877 0.8877,-0.8877 -1.20338,-8.38398 -1.20338,-8.38398 0.0703,-17.5 c 0.0387,-9.625 0.45915,-19.525 0.9344,-22 l 0.8641,-4.5 4.95295,6.93899 c 2.72413,3.81645 9.42841,12.59145 14.8984,19.5 l 9.94544,12.56101 14.55456,14.58367 14.55456,14.58366 12.78427,10.15998 c 14.78762,11.75209 33.70033,24.42022 48.71573,32.63083 5.775,3.15784 10.9275,6.14661 11.45,6.6417 l 0.95,0.90016 -1.45,-0.0104 c -2.39285,-0.0171 -22.81283,-6.4553 -32.45,-10.23109 -26.32733,-10.3149 -52.14005,-25.81165 -73.44023,-44.09008 -2.99213,-2.56765 -6.09742,-4.66846 -6.90065,-4.66846 h -1.46041 l 0.61678,15.25 0.61678,15.25 2.02604,9.5 c 1.11433,5.225 2.91533,12.40174 4.00223,15.9483 1.08691,3.54657 1.76103,6.66346 1.49806,6.92643 -1.15279,1.15279 -32.42556,-13.82796 -51.4586,-24.65047 -15.3365,-8.72059 -39.99516,-24.94035 -53.26345,-35.03518 -5.9199,-4.50399 -11.43375,-8.18908 -12.253,-8.18908 -0.81926,0 -5.33501,3.14338 -10.03502,6.98528 -4.70001,3.8419 -12.7979,9.8044 -17.99531,13.25 l -9.44984,6.26472 -0.002,2.67003 c -0.002,3.90757 6.34567,25.31146 11.15635,37.6156 9.31889,23.83467 32.41492,62.97474 35.39943,59.99023 0.28003,-0.28003 1.19853,-5.18165 2.04111,-10.8925 2.94513,-19.96152 11.99133,-53.88336 14.36949,-53.88336 0.42113,0 4.38163,5.7375 8.80112,12.75 25.71571,40.80367 59.13832,74.04273 99.73081,99.18311 7.15,4.42825 13.675,8.5212 14.5,9.09544 l 1.5,1.04408 -2.85882,-0.58268 c -21.88126,-4.45976 -70.08367,-32.02113 -99.29879,-56.77745 l -9.44845,-8.00643 -0.88295,0.89696 c -0.48561,0.49334 -1.68578,6.07197 -2.66703,12.39697 l -1.7841,11.5 7.6e-4,21.25 7.7e-4,21.25 h -0.75502 c -0.41526,0 -4.02907,-2.81068 -8.0307,-6.24597 -39.21873,-33.66822 -69.65319,-76.50723 -88.27478,-124.25403 -2.57405,-6.6 -5.01846,-12.35619 -5.43203,-12.79154 l -0.75194,-0.79154 -10.75469,3.01987 c -5.91508,1.66092 -12.95317,3.3115 -15.6402,3.66794 -2.68704,0.35645 -5.67105,1.22248 -6.63114,1.92451 l -1.74561,1.27643 -1.21002,11.34717 c -0.66551,6.24094 -1.52785,22.37216 -1.91629,35.84716 l -0.70627,24.5 1.24151,18 c 0.68284,9.9 1.53498,20.025 1.89365,22.5 l 0.65214,4.5 h 1 c 0.55,0 3.475,-4.6326 6.5,-10.29467 7.28877,-13.64283 12.65217,-20.87152 23.52405,-31.70533 7.43981,-7.41374 21.26196,-18.51814 21.55138,-17.31387 0.0415,0.17263 0.2256,8.86387 0.40916,19.31387 l 0.33373,19 1.55149,13 c 4.55358,38.15448 14.04828,70.38182 30.64011,104 l 8.88368,18 8.1723,12.5 c 4.49476,6.875 10.73172,15.875 13.8599,20 3.12818,4.125 6.02614,8.0625 6.43991,8.75 l 0.75232,1.25 h -0.90988 c -3.70122,0 -32.63473,-26.56302 -43.18221,-39.64434 -27.19605,-33.72968 -40.3479,-68.23834 -45.58346,-119.60555 l -0.58607,-5.75 h -1.28414 -1.28414 l -4.76862,10.25 c -11.85847,25.4894 -17.81772,45.46401 -23.04312,77.23738 l -0.65575,3.98737 -1.53568,-1.98737 c -2.94098,-3.80602 -15.08056,-30.10096 -20.0818,-43.49817 -17.00471,-45.55191 -24.04015,-94.8565 -20.18168,-141.43388 l 0.9895,-11.94467 -0.75533,-0.71009 c -1.10031,-1.03441 -22.00516,-3.93379 -23.69305,-3.28609 l -1.43068,0.549 -3.65472,8.66826 c -14.04982,33.32328 -29.72878,84.61278 -32.17201,105.242 l -0.58344,4.92626 0.88929,-0.007 c 0.48911,-0.004 4.97949,-4.39115 9.97863,-9.75 11.28186,-12.09367 32.2524,-31.73496 33.04085,-30.94652 0.32204,0.32204 -0.11693,4.77449 -0.97549,9.89434 -0.85856,5.11984 -2.09196,15.07656 -2.74088,22.12603 l -1.17987,12.81723 0.55053,23.18277 0.55052,23.18277 2.00443,13.0315 c 5.39408,35.06886 14.89038,65.16697 30.24684,95.86607 3.82356,7.64367 6.69384,14.15565 6.37841,14.47108 -0.31542,0.31543 -4.45475,-3.46348 -9.1985,-8.39757 z M 289.9219,386.3363 c -8.75371,-1.95232 -16.84654,-5.22903 -24.82239,-10.05035 l -6.23832,-3.77102 -8.06539,-8.0443 c -4.43597,-4.42436 -9.31623,-10.1818 -10.84503,-12.7943 l -2.77963,-4.75 h -1.74842 c -0.96164,0 -4.40638,0.91849 -7.65498,2.04108 -10.92687,3.77592 -32.72142,9.79351 -61.40655,16.9547 -15.675,3.91323 -32.33159,8.42397 -37.01464,10.02387 -4.68306,1.5999 -9.85806,3.00728 -11.5,3.12752 -4.77564,0.34971 -8.48536,-0.0797 -8.48536,-0.98222 0,-0.45928 10.71777,-11.59678 23.81727,-24.75 l 23.81727,-23.91495 10.78583,-13 c 12.24823,-14.76262 27.31849,-34.52474 49.56787,-65 C 271.31624,177.50734 356.18131,96.314452 418.79305,58.699357 479.85474,22.015479 551.20706,4.1224074 591.11119,15.487015 l 5.25,1.495188 v 2.815515 c 0,7.006077 -7.24148,22.374995 -14.79877,31.408111 -49.62137,59.311681 -78.02341,83.261411 -127.70123,107.682781 -11,5.40755 -21.92596,10.55495 -24.2799,11.43868 l -4.2799,1.60678 -0.58398,-1.52183 c -0.32119,-0.83701 -0.006,-2.91621 0.69951,-4.62046 l 1.2835,-3.09864 3.97476,-2.8793 c 5.41788,-3.9247 23.36003,-19.66134 33.41637,-29.30871 l 8.25698,-7.92121 2.10818,-4.35492 2.10818,-4.35491 -0.56511,-2.25159 c -0.31081,-1.23837 -1.96348,-3.58912 -3.67259,-5.22388 l -3.10748,-2.97229 -9.67926,0.085 -9.67926,0.085 -7.5,2.78843 c -37.77413,14.04409 -90.75445,49.77852 -138.42713,93.36704 -29.22964,26.7255 -116.23073,128.17445 -109.92048,128.17445 0.35882,0 44.34632,-15.49648 97.75,-34.43663 133.55118,-47.36526 173.49812,-61.27316 228.59761,-79.58841 l 47.5,-15.78915 15.84477,-6.63324 c 34.91409,-14.61639 59.28194,-28.67512 81.47549,-47.00627 4.02614,-3.32546 8.3785,-6.89543 9.67191,-7.93325 l 2.35166,-1.88695 1.64703,0.63203 1.64704,0.63202 -0.68067,2.25493 c -0.37437,1.24021 -4.7586,9.67822 -9.74273,18.75114 -4.98413,9.07292 -13.25735,25.04792 -18.38492,35.5 l -9.32285,19.00378 -0.003,6.69099 c -0.002,3.68004 -0.35431,6.90788 -0.78325,7.17298 -0.42894,0.2651 -7.51644,1.21794 -15.75,2.11743 -22.48142,2.45602 -47.64341,6.94311 -69.97011,12.47764 l -20,4.95777 -35.5,11.45702 c -19.525,6.30136 -46.12684,14.86339 -59.11521,19.02672 -12.98836,4.16333 -24.0617,8.13889 -24.60743,8.83457 -0.54572,0.69569 -1.55683,4.86488 -2.24691,9.26488 -3.65099,23.27888 -15.31562,45.66396 -33.02122,63.36956 l -8.10172,8.10172 -9.04606,5.95947 c -10.04817,6.61965 -20.1307,11.15151 -31.68602,14.24209 l -7.67543,2.05287 -14,0.36596 -14,0.36595 z m 32.72863,-20.89711 c 8.35815,-2.17702 18.44323,-7.58872 27.0598,-14.52039 l 7.58282,-6.10006 5.88275,-7.807 5.88275,-7.807 3.14951,-7.56546 c 1.73223,-4.161 3.83583,-10.82811 4.67466,-14.8158 l 1.52516,-7.25035 -0.9913,-0.9913 -0.9913,-0.9913 -4.2821,1.27117 c -2.35515,0.69915 -4.84459,1.72981 -5.53209,2.29035 l -1.25,1.01917 -0.14191,4.12756 -0.1419,4.12755 -0.6081,-3.78311 c -0.33445,-2.08072 -1.05809,-3.75845 -1.60809,-3.7283 -1.69504,0.0929 -18.0896,5.47405 -38,12.4726 -41.34405,14.5325 -50.03527,17.70121 -50.90762,18.56026 l -0.90762,0.89379 1.37736,1.79238 1.37736,1.79238 -2.55229,-2.26699 -2.55228,-2.267 -5.11187,1.65095 c -2.81153,0.90803 -5.34194,2.2505 -5.62313,2.98328 l -0.51126,1.33232 3.98648,5.04328 c 7.33363,9.27774 19.58616,17.49115 30.61619,20.52339 l 4.80868,1.32194 9.0399,0.0894 9.0399,0.0894 z"
                id="path10" />
            <path fill="#0d0707"
                d="m 298.33809,353.65052 c -8.32568,-2.83882 -15.92657,-7.72404 -21.01887,-13.50921 -5.91676,-6.72179 -9.08486,-4.78959 31.04197,-18.93232 34.46288,-12.14648 54.97825,-18.97107 55.49012,-18.4592 1.1688,1.16879 0.37377,9.40065 -1.47971,15.32121 -5.26225,16.80917 -18.29935,30.23442 -34.72887,35.76286 l -6.21845,2.09247 -8.28155,-0.0258 -8.28154,-0.0258 z"
                id="path9" />
        </g>
    </g>
</svg>
