<!-- Created with Inkscape (http://www.inkscape.org/) -->

<svg version="1.1" id="svg1" width="800" height="800" viewBox="0 0 800 800" xmlns="http://www.w3.org/2000/svg"
    xmlns:svg="http://www.w3.org/2000/svg">
    <g id="g1">
        <g id="g2" transform="translate(0.1253436,-0.24573933)">
            <path fill="#cc3e1e"
                d="m 580.18475,765.5 c -7.6729,-35.00276 -25.54173,-91.59201 -39.94409,-126.5 -13.43285,-32.55812 -36.10198,-79.34907 -38.97734,-80.45245 -2.6791,-1.02807 -12.08113,5.5367 -20.24029,14.13235 -5.97185,6.29133 -8.87901,10.42555 -12.59165,17.90638 -4.67629,9.42254 -4.85588,9.63566 -5.74742,6.8201 -7.07159,-22.33277 -23.09787,-54.60476 -36.94231,-74.39044 -2.11052,-3.01623 -3.47828,-5.59461 -3.03948,-5.72974 0.43881,-0.13512 4.84783,-1.40672 9.79783,-2.82577 4.95,-1.41905 12.22734,-4.12817 16.17187,-6.02026 3.94453,-1.89209 7.33799,-3.44017 7.54102,-3.44017 0.20304,0 3.9507,6.96428 8.32814,15.47617 4.37743,8.5119 8.56014,15.71262 9.29491,16.0016 2.05901,0.8098 3.18819,-0.18125 13.64714,-11.97777 5.36401,-6.05 10.10335,-11.13456 10.53187,-11.29901 2.47977,-0.95169 24.89885,26.65623 35.85829,44.1576 29.2792,46.75658 49.60495,132.0372 47.93998,201.14141 L 581.5,771.5 Z M 392.17295,336.375 c 0.23262,-0.48125 1.65439,-3.42434 3.15949,-6.54021 3.00608,-6.22321 5.63139,-17.09393 5.63542,-23.33479 0.004,-6.51857 -2.81996,-16.62069 -6.25706,-22.38171 -3.38485,-5.67345 -17.13235,-18.59587 -26.7108,-25.10772 -6.12777,-4.16592 -16.6525,-9.56421 -25,-12.82286 -13.99126,-5.46184 -31.92851,-7.80239 -47.45582,-6.19229 -5.42283,0.56232 -10.09382,0.78827 -10.37998,0.50212 -0.70399,-0.70399 6.06103,-50.01587 10.42598,-75.99754 3.21255,-19.12222 3.49073,-22.34127 3.11104,-36 -0.26402,-9.49735 -1.06846,-17.75133 -2.19288,-22.5 C 293.05908,91.433016 283.1148,71.955825 270.41107,54.885045 266.88498,50.14682 264,45.953774 264,45.567166 c 0,-1.473308 19.06791,15.420896 32.04625,28.393048 15.6435,15.636028 24.16503,27.619156 28.85198,40.572166 4.60981,12.73984 5.37424,21.86604 4.57233,54.58727 -0.57997,23.66537 -0.46502,28.76866 0.66403,29.48044 1.71443,1.08081 17.60545,8.37354 38.23771,17.54811 20.60737,9.16351 26.47604,12.68726 35.05525,21.04841 l 7.07245,6.89269 10,-0.29465 10,-0.29465 0.31888,17.5 c 0.17538,9.625 0.0168,26.51592 -0.35235,37.53539 l -0.67122,20.03538 -18.02545,8.96462 c -20.28922,10.09045 -20.17708,10.03987 -19.59691,8.83961 z"
                id="path4" />
            <path fill="#0459c5"
                d="m 351.71507,588.25 c -5.21911,-15.37315 -5.1908,-15.11336 -5.20325,-47.75 -0.009,-22.38309 -0.34772,-31.58555 -1.22024,-33.10656 -0.79284,-1.38211 -3.37207,-2.70201 -7.5,-3.83805 -3.46037,-0.95233 -12.17733,-4.16688 -19.37102,-7.14345 C 311.22686,493.43537 304.61176,491 303.72032,491 c -2.16838,0 -15.80234,18.43664 -25.33771,34.26312 -4.22934,7.01971 -7.79966,12.64471 -7.93404,12.5 -0.13438,-0.14472 1.32457,-7.91312 3.24212,-17.26312 2.81185,-13.71064 3.51768,-19.51539 3.64788,-30 0.19097,-15.37902 -0.59316,-17.88622 -7.18588,-22.97633 -2.55898,-1.97573 -9.43676,-8.30181 -15.28395,-14.05796 C 249.02155,447.70957 243.79179,443 243.24705,443 c -2.21111,0 -16.11865,10.10047 -21.49344,15.60978 -7.77257,7.96712 -10.67071,12.49023 -11.96638,18.67587 -1.51331,7.22462 -0.31704,13.5829 4.19661,22.3053 2.10871,4.07498 3.40707,7.40905 2.88525,7.40905 -4.91673,0 -18.10588,-11.29205 -23.27829,-19.92999 -4.60345,-7.68778 -8.82858,-18.74546 -8.07267,-21.12714 1.13805,-3.58566 12.09837,-17.35713 19.08535,-23.98042 3.79308,-3.59566 10.49652,-9.44284 14.89652,-12.99373 25.88031,-20.88597 70.29902,-62.82614 121.19582,-114.43317 34.24667,-34.72454 40.65991,-40.80285 42.10244,-39.90359 2.94228,1.83421 10.20174,11.3549 10.20174,13.37947 0,1.12039 -6.2601,8.58514 -14.85411,17.71254 C 344.17653,341.80164 307,382.56941 307,383.74251 c 0,0.69162 0.71454,1.25749 1.58786,1.25749 3.53796,0 94.71226,-45.94492 139.28392,-70.18852 82.26636,-44.74665 112.79735,-67.7945 157.41675,-118.83396 l 4.78853,-5.47752 -0.61537,3.5 c -3.03618,17.26891 -11.24426,49.96034 -17.96071,71.5345 l -3.43524,11.03449 -13.28287,5.33206 c -31.9678,12.83263 -59.5648,25.08415 -92.03287,40.85744 -16.68931,8.10782 -21.75,10.99685 -21.75,12.41659 0,1.01763 0.92586,5.10704 2.05747,9.08758 2.63385,9.26479 3.67875,28.22774 2.03421,36.91718 C 456.74705,425.27144 420.3506,454.81777 380,450.25658 367.20109,448.8098 356.0735,445.08116 345.68122,438.75703 333.9733,431.63228 327.31942,425.61738 319.37098,414.97342 315.68546,410.03804 312.26032,406 311.75956,406 c -0.50076,0 -6.05151,2.44372 -12.33501,5.43048 C 290.51718,415.66447 288,417.29849 288,418.84671 c 0,6.0208 20.01222,29.47537 34.48949,40.42211 10.32083,7.80392 27.52823,16.0839 40.12246,19.30642 56.61672,14.48668 120.45802,-20.3972 135.56578,-74.07524 1.89537,-6.73426 2.2436,-10.37326 2.20101,-23 -0.0436,-12.91896 -0.40951,-16.31799 -2.6376,-24.5 l -2.58699,-9.5 2.17292,-1.86376 c 3.09861,-2.65773 16.53138,-9.26608 26.80256,-13.18571 18.98801,-7.2461 73.91719,-18.4996 68.78704,-14.0926 -0.22917,0.19687 -10.85291,5.63608 -23.60831,12.08715 -12.7554,6.45107 -25.28619,13.05755 -27.84621,14.68106 l -4.65458,2.95184 0.66808,11.21101 c 0.37935,6.36573 0.20804,15.10072 -0.39636,20.21101 -1.2364,10.4539 -0.64687,11.5 6.48085,11.5 13.07488,0 35.99638,6.35665 52.23603,14.48623 12.41341,6.21417 15.75184,8.87367 9.3268,7.43007 -9.20028,-2.06717 -25.49502,-4.04812 -37.62297,-4.57381 -13.97633,-0.60582 -33.78751,0.82131 -35.91529,2.58721 -0.71787,0.59578 -2.97591,5.11391 -5.01787,10.0403 -3.92282,9.46411 -11.88976,22.88141 -18.56372,31.26355 C 505.8014,454.99879 504,457.9191 504,458.72313 c 0,0.80403 5.78489,9.40775 12.85531,19.11937 17.19364,23.61645 27.83488,39.1575 26.81185,39.1575 -0.24797,0 -5.56203,-4.2819 -11.80901,-9.51532 -11.61537,-9.73081 -34.09319,-26.2658 -41.47329,-30.50832 l -4.11514,-2.36563 -6.88486,5.01292 c -28.45936,20.72145 -60.26824,31.3341 -94.0185,31.36815 l -8.13364,0.008 -3.55979,3.94026 c -1.95788,2.16715 -4.25,5.27498 -5.09358,6.9063 -4.58915,8.87442 -9.27067,33.11941 -11.66344,60.40344 -0.66322,7.5625 -1.51274,13.75 -1.8878,13.75 -0.37507,0 -1.86594,-3.4875 -3.31304,-7.75 z m 46.67545,-153.222 c 23.49897,-6.01003 41.26316,-24.46604 46.22765,-48.028 1.95564,-9.2817 1.36394,-24.11388 -1.27659,-32 -1.61055,-4.81002 -2.15521,-5.47902 -4.34158,-5.33278 -1.375,0.092 -19.825,8.45813 -41,18.59146 -21.175,10.13334 -44.4625,21.27815 -51.75,24.76627 -9.9389,4.75718 -13.25,6.80426 -13.25,8.19178 0,2.98804 4.52928,11.0685 9.40758,16.78357 13.88367,16.26514 34.47559,22.52835 55.98294,17.0277 z M 433.48637,242.75 c -0.94136,-2.14403 -1.47061,-2.24013 -11.23713,-2.04052 C 416.13073,240.83454 412,240.52691 412,239.94619 c 0,-0.53503 5.63469,-7.55925 12.52154,-15.60939 22.26818,-26.0296 44.30358,-54.25677 56.46937,-72.3368 23.53893,-34.98208 44.74266,-78.292964 57.52454,-117.5 l 4.23812,-13 0.60301,19 c 0.88232,27.801013 2.64103,70.60756 3.33727,81.22837 l 0.60495,9.22836 -35.8994,36.2909 c -19.74467,19.95999 -44.87265,45.61973 -55.83997,57.02163 C 444.59212,235.67117 435.36133,245 435.04656,245 c -0.31477,0 -1.01685,-1.0125 -1.56019,-2.25 z"
                id="path3" />
            <path fill="#0c0b0d"
                d="m 373.29923,422.89398 c -1.76042,-0.50911 -3.43366,-1.30248 -3.71831,-1.76305 -0.28465,-0.46057 1.54524,-2.31878 4.06641,-4.12935 5.35628,-3.84659 11.75058,-13.23501 13.86618,-20.35901 C 388.33108,393.8895 389,389.01642 389,385.8135 V 379.99 l 14.75,-7.06707 c 27.86129,-13.34898 30.23738,-14.33555 31.49571,-13.07722 1.65975,1.65975 2.19643,18.70754 0.80059,25.43127 -3.4849,16.78667 -17.09784,31.56989 -33.82951,36.73778 -6.9565,2.14864 -22.85641,2.63207 -28.91756,0.87922 z"
                id="path2" />
        </g>
    </g>
</svg>
