<svg xmlns="http://www.w3.org/2000/svg" xmlns:svg="http://www.w3.org/2000/svg" version="1.0" width="793.000000pt" height="696.000000pt" viewBox="0 0 793.000000 696.000000" preserveAspectRatio="xMidYMid meet" id="svg64">
  <g transform="translate(0.000000,696.000000) scale(0.100000,-0.100000)" fill="#000000" stroke="none" id="g62">
    <path d="M1037 6678 c-88 -350 -12 -731 223 -1125 23 -38 33 -59 23 -48 -129 146 -295 365 -370 487 l-38 62 -3 -110 c-5 -189 32 -379 107 -555 122 -282 263 -430 786 -821 132 -99 245 -185 250 -190 6 -6 -57 34 -140 87 -410 266 -664 482 -813 692 -92 130 -312 337 -312 294 0 -82 77 -346 136 -463 132 -265 234 -362 737 -702 218 -148 266 -185 160 -125 -297 168 -539 337 -693 485 -220 212 -400 353 -400 315 0 -421 383 -850 938 -1051 98 -36 65 -35 -40 0 -145 50 -295 126 -523 265 -191 117 -474 269 -483 261 -20 -21 106 -285 188 -394 146 -195 273 -268 627 -362 104 -28 197 -53 208 -56 11 -3 -20 34 -69 84 l-89 90 29 15 c85 44 224 59 289 32 10 -5 1 8 -21 28 -22 20 -59 63 -83 96 l-42 60 38 11 c73 21 206 24 259 6 l49 -16 -50 48 c-27 26 -54 46 -60 43 -5 -2 -7 -1 -3 4 4 4 -7 25 -26 45 -18 20 -52 64 -74 97 l-41 60 91 7 c145 10 232 7 278 -9 l43 -15 -40 43 c-21 23 -58 70 -81 105 l-43 62 138 0 c90 -1 148 -5 168 -14 26 -11 9 -12 -119 -8 l-149 5 44 -62 c108 -153 272 -311 439 -423 58 -39 107 -73 110 -76 11 -12 -179 94 -245 137 -38 25 -107 82 -152 128 -115 117 -138 124 -357 108 l-96 -7 33 -46 c131 -185 376 -381 599 -477 98 -42 76 -42 -38 1 -137 50 -220 96 -301 163 -116 98 -183 117 -303 87 -90 -23 -90 -23 2 -118 175 -179 464 -347 661 -383 l37 -7 -6 58 -7 58 68 -38 c40 -22 65 -31 62 -23 -18 47 -46 150 -52 190 l-7 47 57 -35 c32 -19 77 -42 101 -51 40 -15 42 -18 33 -43 l-10 -27 -38 37 c-43 40 -101 67 -101 46 0 -27 32 -135 55 -184 l24 -53 -76 42 -76 41 7 -29 c15 -64 59 -135 114 -185 l57 -52 -71 6 c-61 5 -130 23 -199 52 -30 13 50 -81 108 -127 58 -45 90 -55 131 -40 30 12 59 1 36 -13 -33 -20 -87 -22 -173 -8 -58 10 -107 13 -132 9 l-40 -8 50 -46 c75 -68 121 -85 248 -90 120 -5 146 -17 61 -28 -52 -6 -113 -3 -249 12 l-50 5 51 -48 c70 -67 106 -76 269 -70 146 7 130 0 -90 -33 -155 -24 -168 -29 -130 -54 73 -48 159 -57 300 -31 101 18 127 18 55 -1 -120 -32 -320 -98 -320 -106 0 -35 183 -82 294 -76 68 4 76 3 60 -9 -130 -93 -242 -188 -232 -195 80 -51 357 32 483 144 l60 53 -33 -42 c-37 -48 -73 -77 -186 -153 -169 -113 -182 -140 -69 -140 145 0 279 55 385 159 37 37 68 65 68 64 0 -7 -143 -267 -180 -327 l-39 -66 51 21 c67 26 174 96 232 151 25 25 46 39 46 32 0 -7 -40 -47 -90 -89 -75 -64 -92 -84 -100 -119 -71 -275 -214 -476 -432 -608 -73 -45 -72 -46 -69 39 3 85 24 171 62 247 l29 60 -77 -75 c-119 -115 -234 -187 -377 -235 -83 -29 -80 -28 -71 -6 4 9 11 63 15 118 9 124 23 150 107 206 82 52 79 54 -14 7 -121 -59 -338 -119 -430 -119 -19 0 4 112 42 204 7 15 1 14 -35 -9 -87 -55 -186 -95 -445 -180 -146 -48 -265 -90 -265 -95 0 -4 37 -21 83 -39 270 -103 526 -107 719 -12 43 21 78 37 78 35 0 -21 -255 -185 -358 -230 -85 -37 -84 -39 28 -54 182 -25 384 23 547 130 85 55 -74 -88 -209 -188 -138 -103 -137 -107 27 -105 182 1 334 64 460 189 l61 62 -4 -54 -4 -54 39 14 c176 62 360 208 472 375 45 65 131 238 131 261 0 7 3 11 6 8 3 -3 -11 -86 -30 -184 -129 -656 -132 -852 -16 -1152 222 -576 943 -656 1254 -138 181 301 191 571 50 1290 -19 98 -33 181 -30 184 3 3 6 -1 6 -8 0 -23 86 -196 131 -261 112 -167 296 -313 472 -375 l39 -14 -4 54 -4 54 61 -62 c126 -125 278 -188 460 -189 164 -2 165 2 27 105 -135 100 -294 243 -209 188 163 -107 365 -155 547 -130 112 15 113 17 28 54 -103 45 -358 209 -358 230 0 2 35 -14 78 -35 193 -95 449 -91 720 12 45 18 82 35 82 39 0 5 -119 47 -265 95 -259 85 -358 125 -445 180 -36 23 -42 24 -35 9 38 -92 61 -204 42 -204 -92 0 -309 60 -429 119 -94 47 -97 45 -15 -7 84 -56 98 -82 107 -206 4 -55 11 -109 15 -118 9 -22 12 -23 -71 6 -143 48 -258 120 -377 235 l-77 75 29 -60 c38 -76 59 -162 62 -247 3 -85 4 -84 -69 -39 -218 132 -361 333 -432 608 -8 35 -25 55 -100 119 -50 42 -90 82 -90 89 0 7 21 -7 46 -32 58 -55 165 -125 232 -151 l51 -21 -39 66 c-37 60 -180 320 -180 327 0 1 31 -27 68 -64 106 -104 240 -159 385 -159 113 0 100 27 -69 140 -113 76 -149 105 -186 153 l-33 42 60 -53 c126 -112 403 -195 483 -144 10 7 -102 102 -232 195 -16 12 -8 13 60 9 111 -6 294 41 294 76 0 8 -200 74 -320 106 -72 19 -46 19 55 1 141 -26 227 -17 300 31 38 25 25 30 -130 54 -220 33 -236 40 -90 33 163 -6 199 3 269 70 l51 48 -50 -5 c-136 -15 -197 -18 -249 -12 -85 11 -59 23 61 28 127 5 173 22 248 90 l50 46 -40 8 c-25 4 -74 1 -132 -9 -90 -15 -153 -11 -175 11 -16 16 7 22 39 10 40 -15 72 -5 130 40 58 46 138 140 108 127 -69 -29 -138 -47 -199 -52 l-71 -6 57 52 c55 50 99 121 114 185 l7 29 -76 -41 -76 -42 24 53 c23 49 55 157 55 184 0 21 -58 -6 -101 -46 l-38 -37 -10 27 c-9 25 -7 28 33 43 24 9 69 32 101 51 l57 35 -7 -47 c-6 -40 -34 -143 -52 -190 -3 -8 22 1 62 23 l68 38 -7 -58 -6 -58 37 7 c197 36 486 204 661 383 92 95 92 95 2 118 -120 30 -187 11 -303 -87 -81 -67 -164 -113 -301 -163 -114 -43 -136 -43 -38 -1 223 96 468 292 599 477 l33 46 -96 7 c-219 16 -242 9 -357 -108 -45 -46 -113 -103 -152 -128 -66 -43 -256 -149 -245 -137 3 3 52 37 110 76 167 112 331 270 439 423 l44 62 -149 -5 c-128 -4 -145 -3 -119 8 20 9 78 13 168 14 l138 0 -43 -62 c-23 -35 -60 -82 -81 -105 l-40 -43 43 15 c46 16 133 19 278 9 l91 -7 -41 -60 c-22 -33 -56 -77 -74 -97 -19 -20 -30 -41 -26 -45 4 -5 3 -6 -3 -4 -5 3 -32 -17 -60 -43 l-50 -48 49 16 c53 18 186 15 259 -6 l38 -11 -42 -60 c-24 -33 -61 -76 -83 -96 -22 -20 -31 -33 -21 -28 65 27 204 12 289 -32 l29 -15 -89 -90 c-49 -50 -80 -87 -69 -84 11 3 104 28 208 56 354 94 481 167 627 362 82 109 208 373 188 394 -9 8 -292 -144 -483 -261 -228 -139 -378 -215 -523 -265 -105 -35 -138 -36 -40 0 555 201 938 630 938 1051 0 38 -180 -103 -400 -315 -154 -148 -396 -317 -692 -485 -107 -60 -59 -23 160 125 502 340 604 437 736 702 59 117 136 381 136 463 0 43 -220 -164 -312 -294 -149 -210 -403 -426 -813 -692 -82 -53 -145 -93 -140 -87 6 5 118 91 250 190 523 391 664 539 786 821 75 176 112 366 107 555 l-3 110 -38 -62 c-75 -122 -241 -341 -370 -487 -10 -11 0 10 23 48 235 394 311 775 223 1125 -18 73 -26 77 -42 20 -219 -744 -764 -1465 -1471 -1944 -85 -58 -182 -127 -214 -154 -66 -55 -167 -109 -295 -160 -337 -134 -408 -385 -147 -517 197 -100 290 -327 204 -499 -107 -216 -405 -230 -624 -30 l-55 51 -79 335 c-157 675 -204 870 -210 870 -6 0 -53 -195 -210 -870 l-79 -335 -55 -51 c-219 -200 -517 -186 -624 30 -86 172 7 399 204 499 261 132 190 383 -147 517 -128 51 -229 105 -295 160 -32 27 -129 96 -214 154 -707 479 -1252 1200 -1471 1944 -16 57 -24 53 -42 -20z m1749 -3645 c144 -246 463 -341 714 -213 l43 22 -7 -39 c-9 -48 -25 -60 -95 -70 -289 -41 -556 84 -677 319 -23 45 -8 32 22 -19z m2390 19 c-121 -235 -388 -360 -677 -319 -70 10 -86 22 -95 70 l-7 39 43 -22 c251 -128 570 -33 714 213 30 51 45 64 22 19z m-2206 -367 c-25 -13 -49 -24 -55 -24 -5 0 10 11 35 24 25 13 50 24 55 24 6 0 -10 -11 -35 -24z m2020 0 c25 -13 41 -24 35 -24 -5 0 -30 11 -55 24 -25 13 -40 24 -35 24 6 0 30 -11 55 -24z" id="path4"/>
    <path d="M641 3868 c148 -295 337 -432 668 -483 86 -13 172 -27 191 -31 l35 -6 -25 18 c-14 10 -51 40 -84 68 l-58 50 21 17 c38 31 134 61 213 66 98 7 92 18 -12 27 -160 13 -291 49 -450 123 -181 85 -471 193 -517 193 -2 0 6 -19 18 -42z" id="path6"/>
    <path d="M7195 3875 c-115 -35 -236 -83 -395 -158 -160 -74 -290 -110 -450 -123 -104 -9 -110 -20 -12 -27 79 -5 175 -35 213 -66 l21 -17 -58 -50 c-33 -28 -70 -58 -84 -68 l-25 -18 35 6 c19 4 105 18 191 31 242 38 327 75 461 203 92 88 254 323 221 322 -5 -1 -57 -16 -118 -35z" id="path8"/>
    <path d="M1600 3821 c-112 -36 -112 -34 -39 -108 191 -193 523 -352 737 -353 37 0 37 1 17 39 l-14 29 87 -28 c48 -15 102 -30 120 -34 l34 -6 -32 36 c-17 20 -41 55 -52 79 -20 41 -22 43 -92 55 -229 41 -402 117 -549 242 -82 71 -122 80 -217 49z" id="path10"/>
    <path d="M6208 3830 c-15 -4 -53 -30 -85 -58 -147 -125 -320 -201 -549 -242 -70 -12 -72 -14 -92 -55 -11 -24 -35 -59 -52 -79 l-32 -36 34 6 c18 4 72 19 120 34 l87 28 -14 -29 c-20 -38 -20 -39 18 -39 213 1 545 160 736 353 l64 65 -29 15 c-74 38 -155 53 -206 37z" id="path12"/>
    <path d="M1558 3547 c-58 -22 -129 -67 -125 -80 6 -22 141 -117 227 -161 165 -85 348 -134 513 -137 102 -2 104 -1 82 41 -23 44 -20 45 111 23 98 -16 113 -17 93 -4 -13 8 -44 35 -68 60 l-45 45 -85 3 c-179 5 -373 70 -522 176 -64 45 -122 56 -181 34z" id="path14"/>
    <path d="M6261 3550 c-13 -6 -45 -26 -70 -44 -133 -97 -337 -164 -512 -169 l-85 -3 -45 -45 c-24 -25 -55 -52 -68 -60 -20 -13 -5 -12 93 4 131 22 134 21 111 -23 -22 -42 -20 -43 82 -41 165 3 348 52 513 137 98 50 225 143 225 163 0 43 -187 105 -244 81z" id="path16"/>
    <path d="M570 3494 c169 -283 366 -429 605 -449 145 -12 279 -25 310 -31 25 -5 19 1 -32 35 -34 23 -76 60 -93 81 l-31 39 58 46 c73 57 113 76 177 84 l51 6 -30 12 c-16 6 -89 17 -161 23 -192 16 -289 35 -474 95 -151 49 -241 72 -359 90 l-44 7 23 -38z" id="path18"/>
    <path d="M7335 3523 c-11 -2 -56 -11 -100 -19 -44 -9 -154 -40 -245 -69 -184 -60 -282 -79 -474 -95 -72 -6 -144 -17 -161 -23 l-30 -12 51 -6 c64 -8 104 -27 177 -84 l58 -46 -31 -39 c-17 -21 -59 -58 -93 -81 -51 -34 -57 -40 -32 -35 31 6 165 19 310 31 238 20 436 167 604 448 24 40 22 42 -34 30z" id="path20"/>
    <path d="M1492 3252 c-29 -15 -69 -40 -89 -56 l-37 -30 55 -49 c169 -152 343 -196 724 -183 235 8 280 14 249 36 -48 36 -98 125 -64 116 63 -18 64 -17 23 12 -22 17 -44 36 -48 42 -5 9 -33 10 -99 6 -177 -13 -411 29 -520 95 -79 47 -119 50 -194 11z" id="path22"/>
    <path d="M6252 3240 c-105 -64 -341 -107 -518 -94 -66 4 -94 3 -99 -6 -4 -6 -26 -25 -48 -42 -23 -17 -33 -28 -22 -25 11 3 30 8 42 12 37 10 -10 -78 -61 -115 -31 -22 14 -28 249 -36 381 -13 551 30 724 183 l54 47 -36 31 c-104 90 -190 104 -285 45z" id="path24"/>
    <path d="M560 3079 c133 -190 336 -313 560 -338 241 -28 636 -12 487 19 -69 14 -184 70 -217 105 l-24 25 22 16 c13 9 34 28 47 42 l25 27 -112 6 c-116 7 -193 22 -333 64 -116 35 -234 55 -364 62 l-115 6 24 -34z" id="path26"/>
    <path d="M7210 3103 c-76 -8 -209 -35 -285 -58 -140 -42 -217 -57 -333 -64 l-112 -6 25 -27 c13 -14 34 -33 47 -42 l22 -16 -24 -25 c-33 -35 -148 -91 -217 -105 -149 -31 246 -47 487 -19 223 25 427 148 559 337 l22 32 -78 -2 c-43 0 -94 -3 -113 -5z" id="path28"/>
    <path d="M1474 2957 c-16 -14 -37 -39 -47 -56 l-18 -32 73 -33 c281 -130 610 -149 916 -54 l67 20 -25 17 c-14 9 -38 28 -55 43 l-30 26 40 7 c22 3 53 9 69 12 l29 5 -31 13 c-27 12 -46 10 -149 -11 -214 -45 -529 -29 -710 36 -92 34 -97 34 -129 7z" id="path30"/>
    <path d="M6365 2960 c-163 -75 -519 -94 -764 -41 -79 17 -95 18 -123 7 l-31 -14 29 -5 c16 -3 47 -9 69 -12 l40 -7 -30 -26 c-17 -15 -41 -34 -55 -43 l-25 -17 67 -20 c306 -95 635 -76 916 54 l73 33 -18 32 c-43 74 -82 89 -148 59z" id="path32"/>
    <path d="M2425 2775 c-183 -86 -559 -124 -692 -70 -61 25 -79 16 -161 -80 l-72 -85 27 -11 c267 -102 667 -68 976 82 58 27 18 -5 -45 -37 -220 -113 -549 -170 -743 -129 -87 19 -100 15 -121 -41 -9 -25 -28 -54 -42 -64 -18 -14 -21 -21 -11 -25 117 -42 412 -58 569 -31 158 27 451 129 413 143 -21 8 -15 20 11 27 14 3 56 27 93 53 37 26 85 56 106 68 l38 22 -63 7 c-109 12 -268 74 -268 105 0 9 84 45 135 58 29 7 28 7 -17 14 -25 4 -54 9 -65 12 -10 3 -40 -5 -68 -18z" id="path34"/>
    <path d="M5430 2790 c-14 -4 -41 -9 -60 -10 l-35 -2 30 -10 c74 -24 135 -51 135 -59 0 -31 -159 -93 -268 -105 l-63 -7 38 -22 c21 -12 69 -42 106 -68 37 -26 79 -50 93 -53 26 -7 32 -19 12 -27 -39 -14 254 -116 412 -143 157 -27 452 -11 569 31 10 4 7 11 -11 25 -14 10 -33 39 -42 64 -21 56 -34 60 -121 41 -194 -41 -523 16 -743 129 -63 32 -103 64 -45 37 309 -150 709 -184 976 -82 l27 11 -72 85 c-82 96 -100 105 -161 80 -133 -55 -503 -17 -696 71 -29 13 -54 24 -55 23 0 -1 -12 -5 -26 -9z" id="path36"/>
    <path d="M658 2727 c84 -121 256 -237 402 -272 118 -27 597 3 498 32 -24 7 -58 25 -77 41 l-34 28 40 30 c21 16 55 47 75 69 l36 40 -212 0 c-200 1 -397 20 -720 71 l-38 6 30 -45z" id="path38"/>
    <path d="M7030 2733 c-216 -31 -272 -35 -466 -37 l-222 -1 36 -40 c20 -22 54 -53 75 -69 l40 -30 -34 -28 c-19 -16 -53 -34 -77 -41 -42 -13 -39 -13 125 -30 286 -29 369 -20 520 54 119 59 328 262 266 258 -10 -1 -128 -17 -263 -36z" id="path40"/>
    <path d="M1500 2439 c-177 -43 -504 -50 -687 -16 -85 16 -87 14 -30 -40 263 -253 641 -313 1002 -160 57 24 44 34 -48 36 -50 1 -181 25 -224 42 l-25 9 25 24 c21 19 73 116 65 121 -2 1 -37 -7 -78 -16z" id="path42"/>
    <path d="M6360 2455 c0 -17 48 -104 67 -121 l25 -24 -25 -9 c-43 -17 -174 -41 -224 -42 -92 -2 -105 -12 -48 -36 361 -153 739 -93 1003 160 56 54 54 56 -30 40 -185 -34 -511 -27 -691 16 -43 10 -77 17 -77 16z" id="path44"/>
    <path d="M2845 2413 c-59 -21 -156 -27 -224 -14 -58 11 -62 11 -118 -17 -128 -65 -414 -142 -526 -142 -77 0 -94 -11 -124 -78 -13 -32 -36 -69 -51 -84 l-26 -28 77 0 c254 0 813 153 839 230 1 5 50 42 108 80 108 72 113 78 45 53z" id="path46"/>
    <path d="M5140 2361 c58 -39 107 -76 108 -81 26 -77 585 -230 839 -230 l77 0 -26 28 c-15 15 -38 52 -51 84 -30 67 -47 78 -124 78 -112 0 -398 77 -526 142 -55 27 -63 28 -108 19 -85 -18 -184 -10 -274 24 -11 4 27 -25 85 -64z" id="path48"/>
    <path d="M3169 2357 c-15 -12 -43 -59 -62 -105 -51 -121 -109 -216 -189 -312 -118 -142 -164 -252 -156 -377 l3 -51 55 36 c163 107 307 304 381 517 32 95 34 89 -27 66 -27 -10 -63 -21 -81 -24 l-32 -6 74 122 c88 145 100 190 34 134z" id="path50"/>
    <path d="M4730 2363 c0 -9 34 -72 75 -140 l74 -122 -32 6 c-18 3 -54 14 -81 24 -61 23 -59 29 -27 -66 74 -213 218 -410 381 -517 l55 -36 3 51 c8 125 -38 235 -156 377 -80 96 -138 191 -189 312 -40 95 -103 162 -103 111z" id="path52"/>
    <path d="M3060 2304 c-30 -13 -80 -28 -110 -35 -50 -10 -58 -16 -94 -65 -85 -117 -277 -280 -418 -356 -73 -39 -84 -64 -90 -195 l-5 -102 67 34 c277 139 554 416 694 693 30 59 31 58 -44 26z" id="path54"/>
    <path d="M4835 2279 c141 -278 418 -554 695 -694 l67 -34 -5 102 c-6 131 -17 156 -90 195 -142 76 -334 239 -418 356 -33 46 -45 55 -79 61 -35 6 -118 34 -178 60 -16 7 -15 0 8 -46z" id="path56"/>
    <path d="M2665 2223 c-143 -87 -414 -184 -510 -182 -28 1 -130 -2 -227 -6 l-176 -8 49 96 c27 53 61 105 76 116 43 34 12 24 -46 -15 -139 -94 -265 -120 -718 -149 -117 -8 -117 -8 -20 -74 326 -219 572 -218 974 5 34 19 67 34 75 34 7 -1 -2 -7 -19 -15 -41 -18 -65 -57 -102 -168 l-30 -89 42 7 c285 45 552 181 756 384 60 59 90 95 81 97 -94 17 -136 10 -205 -33z" id="path58"/>
    <path d="M5125 2261 l-70 -6 96 -96 c203 -203 471 -339 756 -384 l42 -7 -30 89 c-37 111 -61 150 -102 168 -17 8 -26 14 -19 15 8 0 41 -15 75 -34 402 -223 648 -224 974 -5 97 66 97 66 -20 74 -453 29 -579 55 -718 149 -58 39 -89 49 -46 15 15 -11 49 -63 76 -116 l49 -96 -176 8 c-97 4 -200 7 -228 6 -97 -2 -360 93 -510 184 -41 25 -76 44 -77 43 -1 -1 -33 -4 -72 -7z" id="path60"/>
  </g>
</svg>
