<?xml version="1.0" encoding="UTF-8" standalone="no"?>
<svg version="1.1" width="793" height="696" viewBox="0 0 793 696" xmlns="http://www.w3.org/2000/svg"
    xmlns:svg="http://www.w3.org/2000/svg">
    <g>
        <path style="fill:#020202;stroke:none"
            d="m 167.14569,420.70431 c -0.25073,12.14777 -5.39447,23.68826 -3.70987,36 1.5739,11.50269 10.46066,9.83936 15.98842,1.99924 2.05108,-2.90909 3.86003,-5.96878 5.72145,-8.99924 2.40277,10.09232 -3.57834,36.80902 14,33 12.26131,29.45056 33.09778,58.05353 55.03937,81.00004 10.50406,10.9851 23.65451,20.0422 33.65741,31.2893 10.52343,11.8324 1.82818,33.6496 9.48147,46.4977 3.86173,6.4829 17.03119,9.1188 23.82175,10.8387 14.26181,3.6122 29.268,5.6074 44,4.2045 9.62857,-0.9169 19.48196,-5.1284 29,-5.3457 11.09152,-0.2532 21.65024,7.698 33,6.2114 30.27728,-3.9657 61.85437,-19.9293 88,-34.8464 C 651.00897,545.03866 710.53143,370.08361 651.13489,225.70431 620.54834,151.35549 562.16693,87.570879 488.14569,54.843959 c -18.6875,-8.26227 -43.11844,-20.8927 -64,-20.95984 -9.80039,-0.0315 -20.70508,4.31152 -30,7.10028 -27.90967,8.37372 -54.2699,20.74133 -79,36.14508 -26.90167,16.75635 -51.06625,38.504151 -71.57251,62.574831 -6.01181,7.05682 -11.64591,14.43664 -17.00311,22 -1.81739,2.56579 -3.96714,7.40222 -7.51773,7.76233 -5.87763,0.59613 -15.70241,-5.97748 -20.90665,-8.5177 -15.21185,-7.42493 -30.62587,-14.63123 -46,-21.71912 -5.48801,-2.53015 -16.72121,-10.9812 -22.86652,-8.11426 -5.55836,2.59308 -3.06639,10.06665 -2.1304,14.58875 2.97788,14.38708 6.30733,28.7478 9.87038,43 5.43016,21.72064 10.5283,43.36218 19.40741,64 4.26532,9.91394 15.21617,21.66428 16.92283,32 1.5703,9.50989 -3.113,22.32919 -4.03395,32 -1.33302,13.99814 1.04056,29.25287 -1.39738,43 -0.91655,5.16824 -5.26166,9.73599 -8.1057,14 -6.67509,10.00781 -13.43457,19.92676 -20.0108,30 -2.96823,4.54663 -9.41027,11.13178 -8.75386,16.98148 0.52234,4.65503 5.1441,5.86197 9.09799,5.36343 9.22523,-1.16318 17.60585,-5.26715 27,-5.34491 m -35,-285 c 31.51602,18.39459 66.50656,32.47412 100,46.84955 14.77249,6.34039 32.07761,17.02505 48,19.53237 9.58618,1.50956 21.32245,-1.6297 31,-2.29241 18.49075,-1.26627 37.46335,-0.0895 56,-0.0895 14.74152,0 29.31183,0.37255 44,1.03936 6.07867,0.27597 12.98508,2.52927 19,1.13578 13.8674,-3.21268 27.92148,-11.17325 41,-16.75385 36.11902,-15.41196 70.82605,-34.36044 107,-49.42129 -11.93982,61.56716 -24.41235,140.5682 -81,177.99999 v 1 l 26.37421,33 49.62579,73 -37,-6 3,45 -19,-22 -5,40 -38,-14 2,33 -45,-20 c 0,19.42566 3.68466,37.17639 8,56 -3.60397,0 -9.44727,-1.08704 -12.57022,1.02777 -5.32913,3.60877 -6.64746,20.85803 -8.0054,26.97223 -3.77426,16.99374 -8.12909,33.81564 -11.01081,51.00004 -1.28012,7.6335 -0.37298,18.9246 -3.92746,25.7862 -2.34134,4.5198 -10.02224,6.0739 -14.48611,7.5432 -14.30725,4.7093 -29.03903,5.8447 -44,5.6667 -11.38873,-0.1355 -23.3107,-2.8839 -34,-6.6883 -3.5199,-1.2527 -8.75357,-2.4813 -11.0116,-5.7013 -3.34762,-4.7739 -2.51257,-13.9778 -3.27081,-19.6065 -1.72568,-12.8103 -4.78116,-25.3875 -7.50772,-38 -2.53266,-11.7156 -5.4328,-23.37052 -8.33643,-35.00004 -0.86371,-3.45935 -1.11358,-9.78931 -4.3063,-11.97223 -3.10355,-2.12195 -8.9773,-1.02777 -12.56714,-1.02777 4.31534,-18.82361 8,-36.57434 8,-56 l -45,20 2,-33 -38,14 -5,-40 -19,22 3,-45 -37,6 50.37424,-74 25.62576,-32 v -1 c -44.20682,-29.24175 -58.37109,-81.75469 -70.37346,-129.99999 -2.64046,-10.61371 -4.86334,-21.33295 -7.27701,-32 -1.10724,-4.89337 -3.51419,-11.07105 -2.34953,-16 m 133,217 c 2.27524,28.58984 19.61279,55.39826 50,53 -4.43597,-21.21942 -27.46768,-49.60998 -50,-53 m 129,53 c 30.39102,3.84079 47.8017,-25.37677 50,-53 -22.83072,3.43491 -45.09274,31.78827 -50,53 z"
            id="path1" />
    </g>
</svg>
