<!-- Generator: Adobe Illustrator 22.1.0, SVG Export Plug-In . SVG Version: 6.00 Build 0)  -->

<svg version="1.1" id="Layer_2" x="0px" y="0px" viewBox="0 0 400.82816 800" xml:space="preserve" width="400.82816"
    height="800" xmlns="http://www.w3.org/2000/svg" xmlns:svg="http://www.w3.org/2000/svg"
    xmlns:rdf="http://www.w3.org/1999/02/22-rdf-syntax-ns#" xmlns:cc="http://creativecommons.org/ns#"
    xmlns:dc="http://purl.org/dc/elements/1.1/">
    
    <defs id="defs15" />
    <g id="g10" transform="matrix(0.82815735,0,0,0.82815735,-203.06418,-15.73499)">
        <polygon points="336.6,835.4 486.2,985 635.7,835.4 544.3,744 544.3,656.8 428,656.8 428,744 " id="polygon2" />
        <rect x="457.10001" y="19" width="60.200001" height="612.79999" id="rect4" />
        <path
            d="m 729.2,85.5 v -52 h -108 c -18,38.5 -44.1,61.1 -72.7,76.9 v 62.3 62.3 c 28.6,15.7 54.7,38.3 72.7,76.9 h 108 V 260 c -31.8,1.7 -48.5,-12.6 -47.8,-45.7 h 47.8 v -41.5 -41.5 h -47.8 c -0.7,-33.2 16,-47.5 47.8,-45.8 z"
            id="path6" />
        <path
            d="M 425.9,235.1 V 172.8 110.5 C 397.3,94.8 371.2,72.2 353.2,33.6 h -108 v 51.9 c 31.8,-1.7 48.5,12.6 47.8,45.7 h -47.8 v 41.5 41.5 H 293 c 0.8,33.1 -16,47.4 -47.8,45.7 v 51.9 h 108 c 18,-38.4 44.1,-61 72.7,-76.7 z"
            id="path8" />
    </g>
</svg>
