<svg version="1.0" width="800.000000pt" height="800.000000pt" viewBox="0 0 800.000000 800.000000"
    preserveAspectRatio="xMidYMid meet" id="svg26" xmlns="http://www.w3.org/2000/svg"
    xmlns:svg="http://www.w3.org/2000/svg">
    <g>
        <path fill="#C60222"
            d="m 361,527.69846 c 0,-0.20968 3.40951,-9.56511 7.57668,-20.78984 9.03062,-24.32496 12.61223,-34.02683 23.77755,-64.40862 l 8.4525,-23 -35.7822,-0.5 -35.7822,-0.5 31.81255,-42.5 c 58.57563,-78.25415 77.20242,-103 77.53054,-103 0.40771,0 0.13813,0.74752 -14.06456,39 -6.43257,17.325 -12.26524,33.075 -12.9615,35 -0.69625,1.925 -3.6078,9.8 -6.47009,17.5 -2.8623,7.7 -5.38705,14.5569 -5.61057,15.23756 -0.31679,0.96472 7.49195,1.29543 35.41832,1.5 l 35.8247,0.26244 -18.8772,25 c -10.38245,13.75 -19.64425,26.125 -20.58177,27.5 -0.93752,1.375 -7.61585,10.375 -14.84074,20 -7.22489,9.625 -22.65048,30.23043 -34.27909,45.78984 C 370.51431,515.34925 361,527.90813 361,527.69846 Z"
            id="path1" />
    </g>
    <g transform="translate(0.000000,800.000000) scale(0.100000,-0.100000)" fill="#C6C6AA" stroke="none" id="g24">
        <path
            d="M3816 4944 c-897 -178 -1060 -1399 -241 -1805 127 -63 161 -70 173 -38 25 66 25 66 -15 79 -902 293 -715 1629 234 1677 l112 6 30 42 c26 36 28 44 15 49 -28 11 -238 4 -308 -10z"
            id="path4" />
        <path
            d="M4252 4899 c-25 -67 -28 -63 60 -98 860 -349 649 -1609 -277 -1658 l-110 -6 -33 -43 -32 -44 26 -6 c50 -13 276 3 359 25 713 188 956 1089 434 1610 -148 149 -405 280 -427 220z"
            id="path6" />
        <path
            d="M3849 4735 c-479 -95 -736 -627 -519 -1070 86 -176 301 -357 451 -381 l34 -6 37 104 c21 57 64 175 97 263 l58 160 -357 5 -358 5 146 196 c81 107 233 310 337 449 105 140 196 262 203 272 16 23 -26 23 -129 3z"
            id="path8" />
        <path
            d="M4173 4688 c-11 -34 -19 -55 -122 -333 l-58 -160 357 -5 358 -5 -42 -56 c-48 -66 -234 -314 -283 -379 -19 -25 -76 -100 -126 -168 -51 -68 -118 -158 -151 -200 -32 -42 -67 -90 -79 -106 l-21 -29 65 7 c600 61 889 765 504 1228 -132 159 -377 284 -402 206z"
            id="path10" />
        <path
            d="M257 4698 c6 -7 61 -85 123 -173 62 -88 126 -177 142 -197 l30 -38 1237 0 1238 0 18 48 c45 119 99 209 208 349 l19 23 -1512 0 c-1209 0 -1510 -3 -1503 -12z"
            id="path12" />
        <path
            d="M4747 4687 c109 -140 163 -230 208 -350 l18 -47 1241 2 1241 3 100 140 c55 77 122 170 148 208 l48 67 -1511 0 -1512 0 19 -23z"
            id="path14" />
        <path
            d="M660 4133 c23 -32 87 -122 143 -200 l100 -143 1054 0 1053 0 -7 28 c-5 15 -8 105 -8 200 l0 172 -1188 0 -1188 0 41 -57z"
            id="path16" />
        <path
            d="M5005 4018 c0 -95 -3 -185 -8 -200 l-7 -28 1053 0 1054 0 118 168 c65 92 130 182 143 200 l24 32 -1188 0 -1189 0 0 -172z"
            id="path18" />
        <path
            d="M994 3665 c9 -14 52 -74 94 -134 42 -59 98 -138 124 -174 l48 -67 1006 0 1006 0 -19 23 c-88 113 -122 166 -164 252 -27 55 -49 106 -49 113 0 9 -213 12 -1031 12 l-1031 0 16 -25z"
            id="path20" />
        <path
            d="M4960 3678 c-1 -33 -104 -222 -163 -301 l-67 -87 1006 2 1007 3 129 180 c71 99 134 188 139 198 9 16 -42 17 -1021 17 -817 0 -1030 -3 -1030 -12z"
            id="path22" />
    </g>
</svg>
