<svg version="1.0" width="800.000000pt" height="800.000000pt" viewBox="0 0 800.000000 800.000000"
    preserveAspectRatio="xMidYMid meet" id="svg10" xmlns="http://www.w3.org/2000/svg"
    xmlns:svg="http://www.w3.org/2000/svg">
    <circle cx="400" cy="400" r="275" fill="#C60222" />
    <g transform="translate(0.000000,800.000000) scale(0.100000,-0.100000)" stroke="none" id="g8" fill="#C6C6AA">
        <path 
            d="M3795 6753 c-1195 -82 -2228 -975 -2489 -2153 -301 -1362 475 -2756 1782 -3204 161 -55 155 -55 171 -8 8 20 62 168 121 327 60 160 176 475 260 700 83 226 203 548 266 717 63 169 114 309 114 312 0 3 -466 6 -1036 6 l-1035 0 74 98 c41 53 315 419 609 812 294 393 622 832 729 974 106 142 219 293 249 335 31 42 221 296 423 566 303 404 364 490 350 496 -57 21 -411 34 -588 22z"
            id="path4" />
        <path
            d="M4678 6443 c-42 -115 -126 -341 -186 -503 -60 -162 -200 -539 -311 -838 -110 -299 -201 -545 -201 -548 0 -2 465 -5 1033 -6 l1033 -3 -479 -640 c-652 -872 -1607 -2148 -1805 -2412 -189 -253 -192 -226 25 -244 1410 -114 2696 887 2932 2283 228 1345 -546 2642 -1842 3084 -54 19 -104 34 -111 34 -7 0 -46 -92 -88 -207z"
            id="path6" />
    </g>
</svg>
