<svg version="1.0" width="800.000000pt" height="800.000000pt" viewBox="0 0 800.000000 800.000000"
    preserveAspectRatio="xMidYMid meet" id="svg28" xmlns="http://www.w3.org/2000/svg"
    xmlns:svg="http://www.w3.org/2000/svg">
    <g transform="translate(0.000000,800.000000) scale(0.100000,-0.100000)" fill="#000000" stroke="none" id="g26">
        <path
            d="M3901 7233 c-51 -269 -97 -509 -103 -535 -9 -47 -11 -48 -46 -48 -246 -1 -703 -190 -994 -411 -42 -33 -79 -59 -83 -59 -3 0 -147 95 -320 210 -173 116 -315 208 -315 205 0 -3 95 -147 210 -320 l210 -315 -74 -97 c-119 -158 -207 -314 -276 -493 -18 -47 -36 -88 -40 -93 -4 -4 -118 31 -255 78 -136 47 -250 84 -252 82 -2 -2 98 -93 223 -202 l226 -199 -7 -35 c-4 -20 -9 -48 -12 -64 l-6 -27 173 2 173 3 22 100 c214 953 1234 1529 2167 1224 558 -182 1005 -675 1127 -1243 l18 -81 172 -3 173 -2 -6 37 c-4 21 -9 50 -12 64 -4 23 18 46 221 224 124 109 224 199 222 201 -2 2 -116 -34 -252 -81 -137 -47 -252 -82 -256 -78 -3 5 -19 42 -34 83 -62 167 -188 387 -307 537 l-49 62 211 316 c115 174 210 318 210 321 0 2 -142 -90 -315 -206 -173 -115 -317 -210 -320 -210 -3 0 -44 30 -92 66 -291 219 -741 404 -984 404 -40 0 -36 -17 -145 552 -54 285 -101 518 -104 518 -3 0 -48 -219 -99 -487z"
            id="path4" />
        <path
            d="M1990 4510 l0 -260 2010 0 2010 0 0 260 0 260 -810 0 -810 0 17 -35 c17 -35 15 -46 -16 -95 -6 -8 -13 -31 -16 -51 -11 -73 -38 -92 -117 -86 -77 7 -92 -9 -69 -74 18 -52 15 -61 -18 -54 -27 6 -30 4 -33 -21 -3 -28 -28 -47 -28 -22 0 40 -29 54 -40 21 -14 -40 -18 -40 -47 -5 l-23 27 -23 -27 c-29 -35 -33 -35 -47 5 -11 33 -40 19 -40 -21 0 -25 -25 -6 -28 22 -3 25 -6 27 -33 21 -33 -7 -36 2 -18 54 23 65 8 81 -69 74 -80 -7 -104 12 -117 90 -4 23 -16 53 -26 66 -23 29 -24 43 -4 81 l16 30 -811 0 -810 0 0 -260z"
            id="path6" />
        <path
            d="M3707 4755 c-22 -22 -21 -47 4 -97 l21 -40 48 6 c76 10 177 62 158 81 -8 8 -152 56 -184 62 -21 3 -36 -1 -47 -12z"
            id="path8" />
        <path
            d="M4200 4755 c-14 -8 -49 -20 -78 -26 -29 -7 -55 -16 -58 -21 -16 -25 74 -73 156 -84 l48 -6 21 40 c45 88 -7 144 -89 97z"
            id="path10" />
        <path d="M3984 4618 c-48 -77 -65 -165 -19 -94 22 33 42 33 67 0 34 -42 40 -13 10 46 -28 56 -45 70 -58 48z"
            id="path12" />
        <path
            d="M1985 4088 c-3 -18 -26 -175 -50 -348 -25 -173 -48 -330 -51 -347 l-6 -33 506 0 506 0 0 380 0 380 -450 0 -449 0 -6 -32z"
            id="path14" />
        <path
            d="M5110 3740 l0 -380 505 0 506 0 -6 33 c-3 17 -26 176 -50 352 -25 176 -48 332 -51 348 l-6 27 -449 0 -449 0 0 -380z"
            id="path16" />
        <path
            d="M3892 3503 c-68 -27 -131 -82 -213 -184 -95 -118 -325 -307 -376 -309 -15 -1 -87 -61 -105 -88 -49 -74 -21 -118 177 -273 276 -217 337 -288 455 -524 76 -153 122 -283 148 -417 9 -49 19 -88 22 -88 3 0 13 39 22 88 26 134 72 264 148 417 118 236 179 307 455 524 243 191 256 262 63 366 -144 77 -281 191 -367 303 -133 175 -286 241 -429 185z"
            id="path18" />
        <path d="M1711 2178 c-84 -590 -156 -1085 -158 -1100 l-5 -28 671 0 671 0 0 1100 0 1100 -513 0 -513 0 -153 -1072z"
            id="path20" />
        <path
            d="M5110 2150 l0 -1100 670 0 c369 0 670 2 670 3 0 15 -311 2175 -315 2185 -3 9 -116 12 -515 12 l-510 0 0 -1100z"
            id="path22" />
        <path d="M1540 565 l0 -315 2460 0 2460 0 0 315 0 315 -2460 0 -2460 0 0 -315z" id="path24" />
    </g>
</svg>
