<svg version="1.1" id="svg1" width="800" height="800" viewBox="0 0 800 800" xmlns="http://www.w3.org/2000/svg"
    xmlns:svg="http://www.w3.org/2000/svg">
    <g id="g1">
        <circle cx="400" cy="400" r="350" fill="#FFFFFF" id="circle4" />
        <g id="g14">
            <path fill="#ecd85d"
                d="M 369,767.9731 C 86.457888,741.63434 -64.001807,424.4471 95.546488,191.5 257.95885,-45.628749 620.17053,-12.926744 736.99244,249.41246 838.66727,477.73689 690.89741,736.14942 441,767.02921 c -11.4155,1.41061 -60.14111,2.04939 -72,0.94389 z m 34.05978,-34.13296 c 1.0487,-4.03708 2.38808,-10.04014 2.97641,-13.34014 0.58833,-3.3 2.58955,-12.75 4.44716,-21 1.85761,-8.25 4.33727,-19.5 5.51036,-25 1.1731,-5.5 3.26589,-14.725 4.65065,-20.5 1.38477,-5.775 3.11149,-13.65 3.83717,-17.5 1.30592,-6.92849 4.50091,-21.58911 8.49925,-39 3.65385,-15.91082 6.08418,-26.87893 7.05232,-31.82734 1.84394,-9.42473 0.3439,-10.61786 21.7844,17.32734 21.99282,28.6651 28.59492,36.59632 28.96516,34.79642 0.29095,-1.41443 -1.5058,-16.26234 -6.81245,-56.29642 -5.38122,-40.59659 -5.73692,-38.35655 5.09562,-32.08926 4.08879,2.36562 18.90917,10.95104 32.93417,19.07872 14.025,8.12769 29.1,16.79699 33.5,19.26513 4.4,2.46814 9.125,5.2606 10.5,6.20547 4.93999,3.39465 14.92949,8.44379 15.52583,7.84744 C 582.41203,580.9213 578.45417,573.47657 562.4894,546 530.65971,491.21873 526,482.96677 526,481.38033 c 0,-2.22212 0.29097,-2.19208 69.54581,7.17808 19.91361,2.6943 23.88194,2.94272 22.9512,1.43676 C 617.73814,488.76728 599.40467,474.36734 576.25,456.81244 566.7625,449.61941 559,443.37057 559,442.92612 c 0,-1.39831 1.10824,-1.70449 25.06838,-6.92579 12.88739,-2.80838 29.28162,-6.42022 36.43162,-8.02632 7.15,-1.6061 23.575,-5.2043 36.5,-7.99601 12.925,-2.79171 27.1,-5.92797 31.5,-6.96947 4.4,-1.0415 12.5,-2.82752 18,-3.96894 27.19816,-5.64442 36.64884,-8.22409 35.25084,-9.62208 -0.68632,-0.68632 -40.20027,-9.8842 -46.75084,-10.88245 -2.475,-0.37717 -7.65,-1.50051 -11.5,-2.49631 -3.85,-0.99579 -10.375,-2.53712 -14.5,-3.42517 -12.14723,-2.61512 -52.94813,-11.54103 -60,-13.12605 -3.575,-0.80354 -15.95,-3.53922 -27.5,-6.07928 -26.96463,-5.93003 -25.7914,-4.55924 -12.5,-14.60492 4.675,-3.53338 13.37205,-10.2221 19.32678,-14.86383 5.95473,-4.64172 13.15473,-10.10187 16,-12.13365 2.84527,-2.03178 7.42322,-5.72411 10.17322,-8.20518 6.35002,-5.72905 7.97308,-5.69895 -30.64703,-0.56831 C 523.16817,321.09428 526,320.83463 526,318.33694 c 0,-0.91469 2.53297,-5.97719 5.62883,-11.25 3.09586,-5.27282 7.43245,-12.73694 9.63687,-16.58694 2.20442,-3.85 5.3624,-9.25 7.01773,-12 C 559.60846,259.68574 582,220.07918 582,218.86151 c 0,-1.89325 0.51991,-2.163 -32,16.60287 -55.36857,31.95087 -57.29469,33.0586 -63.76635,36.67285 -4.63511,2.58858 -5.34241,2.74291 -5.90088,1.28756 -0.54003,-1.40729 6.74602,-61.52646 9.69629,-80.0067 1.52566,-9.55664 1.33544,-12.96549 -0.63237,-11.33235 -1.43271,1.18904 -18.34449,22.7023 -27.34492,34.78512 -6.65357,8.93223 -17.51752,22.63597 -18.48204,23.31316 -2.093,1.4695 -2.31361,0.72782 -8.97797,-30.18402 -8.0578,-37.37515 -32.25824,-146.785373 -33.23378,-150.25 -0.69139,-2.45545 -2.23138,-2.178883 -2.78413,0.5 -0.25534,1.2375 -2.0266,9 -3.93614,17.25 -1.90954,8.25 -3.68869,16.125 -3.95366,17.5 -0.26497,1.375 -1.45273,6.775 -2.63946,12 -1.18674,5.225 -2.74925,12.425 -3.47224,16 -0.723,3.575 -4.71133,21.8 -8.86295,40.5 -4.15162,18.7 -9.62359,43.44145 -12.15991,54.98101 -5.92999,26.97973 -4.26147,25.98084 -16.73548,10.01899 -14.83095,-18.97782 -17.73541,-22.78891 -23.41862,-30.72876 -3.04266,-4.25081 -7.55572,-9.87581 -10.02903,-12.5 l -4.49693,-4.77124 0.60047,7 c 0.6787,7.91192 4.45123,37.45565 8.09088,63.36178 3.69953,26.33236 3.791,26.10069 -7.62392,19.3076 -9.41265,-5.60152 -23.9631,-14.09399 -35.93686,-20.97478 -5.775,-3.31864 -15.9,-9.15316 -22.5,-12.9656 -35.77363,-20.66435 -35.509,-20.56415 -30.47343,-11.53839 1.78261,3.19516 5.12468,9.18439 7.42682,13.30939 8.40871,15.06683 18.07185,31.86046 27.20247,47.27538 5.13928,8.67645 9.34414,16.14644 9.34414,16.59996 0,0.45352 1.30257,2.62273 2.8946,4.82047 9.26828,12.79448 8.31522,14.65767 -6.31269,12.34097 C 258.23686,318.507 246.5,316.90607 235.5,315.47915 c -11,-1.42691 -24.5,-3.21055 -30,-3.96363 -5.5,-0.75308 -13.36396,-1.68301 -17.47547,-2.06651 -10.411,-0.97109 -12.88016,-3.30351 36.19919,34.19442 14.37221,10.98075 17.44485,13.82534 15.93899,14.75601 -0.53217,0.3289 -10.34899,2.64234 -21.81515,5.14097 -11.46616,2.49863 -25.34756,5.6281 -30.84756,6.95437 -5.5,1.32627 -14.89431,3.33906 -20.87624,4.47287 -5.98193,1.13381 -15.20693,3.14179 -20.5,4.46216 -5.29307,1.32038 -12.32376,2.91858 -15.62376,3.55156 -3.3,0.63299 -9.6,1.99264 -14,3.02146 -4.4,1.02882 -14.75,3.29766 -23,5.04188 -19.073336,4.03249 -34.621,7.74296 -35.303191,8.42515 -1.259911,1.25991 -0.286095,1.54317 23.803191,6.92374 6.325,1.41275 15.55,3.49605 20.5,4.62957 4.95,1.13351 15.3,3.39082 23,5.01626 7.7,1.62543 16.7,3.57968 20,4.34278 5.57937,1.29019 18.21278,4.08042 46.5,10.27006 6.325,1.384 16.45,3.61516 22.5,4.95814 6.05,1.34298 14.15,3.13211 18,3.97585 9.09529,1.99326 9.83043,2.81632 5.53942,6.20194 -5.62426,4.43756 -21.89895,16.95959 -31.53942,24.26698 -30.21728,22.90443 -29.91836,22.25833 -9,19.45303 6.05,-0.81135 18.425,-2.41461 27.5,-3.5628 9.075,-1.14819 22.29112,-2.95562 29.36916,-4.01652 24.20588,-3.62809 23.52853,-5.37853 8.15365,21.07111 -3.99637,6.875 -10.63765,18.35 -14.75841,25.5 -4.12076,7.15 -11.00954,19.075 -15.3084,26.5 -11.0495,19.08473 -14.73939,26.04994 -14.12545,26.66388 0.59517,0.59518 9.51741,-3.79155 17.16945,-8.44157 2.75,-1.67113 10.85,-6.40245 18,-10.51405 7.15,-4.1116 24.41697,-14.05298 38.37105,-22.09195 31.80268,-18.32159 29.20356,-18.40772 26.66574,0.88369 -9.19918,69.9283 -9.82819,75.12579 -9.28809,76.74611 0.50065,1.50195 13.14231,-14.18697 39.27814,-48.74611 9.31295,-12.31441 9.71157,-12.47047 11.38924,-4.45881 1.97761,9.44401 7.14212,33.04597 10.05656,45.95881 1.67583,7.425 4.35168,19.575 5.94633,27 1.59465,7.425 4.30982,19.8 6.03371,27.5 4.82973,21.57264 6.97388,31.24678 8.9763,40.5 8.82525,40.78163 8.79003,40.7008 12.1308,27.84014 z M 385,528.96105 C 295.71505,518.08782 244.03765,423.27271 283.71179,343.12251 334.76735,239.97941 483.46292,248.62303 522.4453,357 554.56259,446.29098 479.30638,540.44579 385,528.96105 Z m 33.76077,-14.52384 c 98.59914,-15.82152 131.65556,-143.03094 53.30399,-205.12715 -64.38837,-51.02991 -159.2511,-21.22405 -182.94019,57.4798 -24.68345,82.00748 44.88906,161.24614 129.6362,147.64735 z"
                id="path15" />
        </g>
    </g>
</svg>
