<svg version="1.0" width="800.000000pt" height="800.000000pt" viewBox="0 0 800.000000 800.000000"
    preserveAspectRatio="xMidYMid meet" id="svg8" xmlns="http://www.w3.org/2000/svg"
    xmlns:svg="http://www.w3.org/2000/svg">
<g transform="translate(0.000000,800.000000) scale(0.100000,-0.100000)" fill="#000000" stroke="none" id="g6">
        <path
            d="M3703 7453 c-105 -148 -357 -502 -560 -788 -203 -286 -466 -655 -583 -820 -117 -165 -250 -352 -295 -415 -45 -63 -123 -173 -174 -245 l-92 -130 532 -3 531 -2 -6 -158 c-68 -1604 -212 -2987 -464 -4454 l-29 -168 1337 0 1337 0 -39 228 c-250 1472 -385 2782 -454 4399 l-6 153 532 2 531 3 -113 160 c-63 88 -370 520 -683 960 -988 1391 -1098 1545 -1105 1545 -3 0 -92 -120 -197 -267z"
            id="path4" />
    </g>
</svg>
