<svg version="1.0" width="800.000000pt" height="800.000000pt" viewBox="0 0 800.000000 800.000000"
    preserveAspectRatio="xMidYMid meet" id="svg12" xmlns="http://www.w3.org/2000/svg"
    xmlns:svg="http://www.w3.org/2000/svg">
<g transform="translate(0.000000,800.000000) scale(0.100000,-0.100000)" fill="#000000" stroke="none" id="g10">
        <path
            d="M319 7027 c-89 -59 -89 -185 0 -244 33 -22 42 -23 247 -23 l212 0 79 -40 c124 -64 198 -137 249 -245 34 -71 778 -1667 1474 -3160 54 -115 117 -250 140 -300 23 -49 71 -151 105 -225 109 -236 260 -560 340 -730 42 -91 90 -192 105 -225 15 -33 62 -133 104 -223 80 -171 87 -202 60 -259 -36 -75 -60 -83 -251 -83 -158 0 -172 -2 -197 -21 -79 -62 -74 -199 9 -253 39 -26 2503 -24 2546 1 63 37 84 126 48 200 -31 65 -55 73 -212 73 -172 0 -240 38 -292 163 -29 69 -23 88 236 791 139 375 271 733 294 796 23 63 176 477 340 920 500 1355 773 2094 867 2350 116 316 146 357 315 436 l72 34 225 0 225 0 36 31 c66 59 71 151 10 217 l-33 37 -973 3 -972 2 -34 -26 c-77 -58 -82 -160 -12 -226 l40 -38 302 0 302 0 51 -36 c70 -48 124 -133 124 -197 0 -11 -82 -241 -181 -511 -100 -270 -219 -592 -264 -716 -45 -124 -137 -371 -203 -550 -135 -365 -281 -760 -352 -955 -45 -121 -692 -1874 -764 -2068 -18 -49 -36 -88 -40 -88 -8 0 -52 91 -199 406 -35 77 -315 678 -622 1335 -306 657 -572 1227 -590 1265 -35 76 -492 1056 -557 1195 -22 47 -82 175 -133 285 -51 110 -118 253 -149 319 -80 169 -82 212 -11 283 l33 33 298 0 c279 0 301 1 331 20 87 53 87 197 0 250 -31 20 -61 20 -1388 20 l-1356 0 -34 -23z"
            id="path4" />
        <path
            d="M4275 6594 c-413 -77 -686 -301 -791 -649 -31 -102 -36 -252 -20 -516 7 -112 6 -153 -9 -240 -74 -441 0 -698 193 -675 31 4 78 10 104 13 64 7 92 -1 138 -43 l40 -36 0 -229 0 -229 60 0 59 0 3 71 3 71 65 0 65 0 3 -71 3 -72 62 3 62 3 3 73 3 73 67 -3 67 -3 3 -73 3 -72 59 0 59 0 3 73 3 72 67 3 67 3 3 -73 3 -73 63 -3 62 -3 0 69 c0 78 4 82 70 82 66 0 70 -4 70 -81 l0 -69 60 0 60 0 0 228 0 227 25 28 c57 60 76 63 262 41 178 -22 254 225 193 630 -20 130 -22 168 -14 290 24 417 -7 581 -150 780 -212 297 -713 462 -1151 380z m32 -1370 c29 -8 37 -49 31 -154 -18 -305 -418 -496 -585 -279 -157 203 -117 419 80 441 70 7 440 1 474 -8z m987 -21 c130 -92 113 -293 -39 -443 -133 -131 -424 -33 -525 177 -26 53 -41 244 -21 273 28 42 523 36 585 -7z m-717 -428 c90 -80 169 -279 125 -312 -45 -35 -162 -14 -162 28 0 12 -7 19 -20 19 -13 0 -20 -7 -20 -19 0 -44 -140 -65 -178 -26 -31 31 59 235 134 304 67 62 60 61 121 6z"
            id="path6" />
        <path
            d="M6180 3545 l0 -35 89 0 c200 0 357 -57 401 -145 l25 -50 3 -994 c1 -631 -1 -1014 -8 -1048 -29 -157 -119 -211 -372 -220 l-138 -6 0 -33 0 -34 785 0 785 0 0 35 0 35 -102 0 c-274 1 -395 70 -418 240 -20 156 -9 1972 13 2037 43 128 165 183 410 183 l97 0 0 35 0 35 -785 0 -785 0 0 -35z"
            id="path8" />
    </g>
</svg>
