<!-- Generator: Adobe Illustrator 23.0.4, SVG Export Plug-In . SVG Version: 6.00 Build 0)  -->
<svg version="1.1" x="0px" y="0px" viewBox="0 0 435.33505 800" xml:space="preserve" width="435.33505"
    height="800" xmlns="http://www.w3.org/2000/svg" xmlns:svg="http://www.w3.org/2000/svg">
    <switch id="switch18" transform="matrix(0.84121092,0,0,0.84121092,-202.73183,-21.030273)">
        <g id="g14" fill="#5CB8BF">
            <path
                d="m 758.51,652.28 c 0,-39.2 -47.05,-115.37 -123.22,-115.37 -76.17,0 -129.94,49.29 -129.94,49.29 -2.96,-13.63 -5.05,-32.52 -6.15,-54.3 19.15,1.27 36.78,4.58 53.2,9.49 V 480.9 c -18.04,5.81 -36.08,8.91 -54.11,9.32 0.02,-4.63 0.07,-9.31 0.17,-14.03 15.82,-2.43 32.31,-8 49.11,-15.24 16.49,23.66 30.51,48.92 41.8,75.95 15.24,-2.56 35.71,-9.12 64.97,-22.4 0.44,-5.74 -5.37,-9.26 -15.68,-11.2 -17.01,-16.77 -32.19,-38.9 -46.25,-64.27 45.6,-24.02 91.25,-50.5 130.26,-51.11 V 342 C 637.54,340.88 594.97,265.83 481.84,265.83 368.71,265.83 326.13,340.88 241,342 v 45.93 c 39.01,0.61 84.66,27.09 130.26,51.11 -14.06,25.37 -29.23,47.49 -46.25,64.27 -10.31,1.94 -16.12,5.46 -15.68,11.2 29.26,13.28 49.73,19.84 64.97,22.4 11.29,-27.03 25.31,-52.29 41.8,-75.95 14.78,6.36 29.31,11.43 43.36,14.22 0.02,5.03 0.03,9.98 0.04,14.82 -16.08,-0.89 -32.15,-3.92 -48.23,-9.1 v 60.49 c 14.96,-4.48 30.92,-7.63 48.13,-9.11 -0.52,78.46 -2.9,127.68 -6.69,154.73 151.22,-135.54 224.81,-100.52 228.51,-30.24 2.24,132.18 -306.92,133.3 -306.92,256.51 0,28 20.16,62.73 56.01,62.73 32.48,0 51.53,-17.92 51.53,-17.92 -14.56,0 -64.97,6.72 -64.97,-36.96 2.23,-105.31 341.64,-88.51 341.64,-268.85 z M 423.86,312.78 c 2.85,-0.97 5.74,-1.89 8.66,-2.78 -7.72,8.01 -12.29,17.91 -12.29,28.64 0,26.6 28.08,48.17 62.73,48.17 34.65,0 62.73,-21.56 62.73,-48.17 0,-10.3 -4.22,-19.83 -11.39,-27.66 2.93,0.93 5.83,1.9 8.7,2.9 7.36,8.73 11.65,19.15 11.65,30.36 0,30.7 -32.1,55.58 -71.69,55.58 -39.59,0 -71.69,-24.88 -71.69,-55.58 -0.01,-11.68 4.65,-22.51 12.59,-31.46 z m -120.13,49.38 c 19.67,-1.23 47.44,-17.97 81.63,-33.76 -1.37,5.11 -2.1,10.41 -2.1,15.84 0,42.69 44.63,77.29 99.69,77.29 55.06,0 99.69,-34.6 99.69,-77.29 0,-5.01 -0.62,-9.91 -1.8,-14.66 33.03,15.43 59.91,31.38 79.09,32.58 -36.96,-1.12 -80.65,64.97 -178.1,68.33 -97.45,-3.36 -141.14,-69.45 -178.1,-68.33 z"
                id="path2" />
            <polygon points="482.26,249.03 528.18,25 482.26,25 436.33,25 " id="polygon4" />
            <polygon points="413.8,260.46 388.43,72.52 352.48,85.09 316.53,97.66 " id="polygon6" />
            <polygon points="344.33,286.13 291.07,160.06 266.25,177.98 241.43,195.89 " id="polygon8" />
            <polygon points="647.98,97.66 612.03,85.09 576.08,72.52 550.71,260.46 " id="polygon10" />
            <polygon points="620.18,286.13 723.08,195.89 698.26,177.98 673.44,160.06 " id="polygon12" />
        </g>
    </switch>

</svg>
