<svg version="1.0" width="372pt" height="372pt" viewBox="0 0 372 372" preserveAspectRatio="xMidYMid meet" id="svg110"
    xmlns="http://www.w3.org/2000/svg" xmlns:svg="http://www.w3.org/2000/svg">
    <g transform="translate(0,372) scale(0.1,-0.1)" fill="#000000" stroke="none" id="g108">
        <path
            d="M3446 2968 c-9 -12 -21 -40 -27 -60 -5 -20 -21 -50 -34 -66 -14 -17 -25 -33 -25 -36 0 -3 -13 -25 -30 -48 -16 -22 -30 -45 -30 -49 0 -11 -57 -94 -75 -109 -8 -7 -15 -18 -15 -24 0 -16 -232 -239 -266 -255 -16 -8 -42 -20 -59 -27 -144 -61 -261 -128 -282 -161 l-15 -23 4 -56 5 -55 43 -44 c24 -25 49 -45 55 -45 5 -1 28 -16 50 -35 l40 -34 -1 -38 c-1 -21 -10 -56 -22 -78 l-20 -40 -42 -24 -41 -23 -44 7 c-25 3 -47 10 -50 16 -11 17 -25 9 -25 -13 0 -12 4 -35 9 -52 5 -17 17 -67 26 -111 9 -44 23 -107 30 -140 8 -33 18 -80 24 -105 5 -25 15 -95 21 -155 l12 -110 -11 -58 -11 -58 -28 -35 c-30 -36 -107 -92 -165 -119 l-32 -14 -85 2 -85 3 -55 26 -55 25 -13 -10 -12 -10 12 -14 c21 -26 71 -45 115 -45 23 1 44 -2 47 -6 5 -8 100 -7 113 1 5 3 23 5 39 5 28 -1 99 32 169 78 14 9 35 33 46 53 11 20 31 54 44 76 l25 40 0 70 c0 39 -9 106 -19 150 -11 44 -22 100 -26 125 l-6 45 33 31 c18 17 51 36 73 43 l41 13 41 -11 c23 -6 57 -27 79 -49 22 -21 61 -53 88 -71 l49 -32 61 -7 c33 -4 100 -5 147 -2 l85 6 47 29 c26 17 47 33 47 37 0 3 -30 16 -67 28 -38 12 -88 34 -113 49 -25 14 -54 31 -65 37 -11 6 -20 21 -20 35 l0 24 85 5 85 6 85 40 85 41 46 54 c25 30 51 64 57 75 l12 22 -15 12 -14 12 -52 -17 -52 -18 -101 6 c-104 5 -162 19 -151 37 3 5 22 10 42 10 50 0 163 35 199 62 70 53 200 202 217 250 3 9 0 21 -7 27 l-13 11 -23 -20 c-24 -21 -108 -50 -146 -50 -12 0 -42 -9 -66 -20 -25 -11 -71 -21 -104 -22 l-59 -3 0 14 c0 15 8 20 75 47 25 10 70 41 102 68 l56 49 27 54 c15 29 32 56 37 60 19 11 46 88 53 151 l7 62 -12 0 c-6 0 -42 -24 -79 -54 -37 -30 -111 -84 -165 -121 l-98 -67 -11 11 -11 11 30 37 c17 21 47 70 66 108 80 156 89 186 112 367 l14 107 -12 41 c-6 22 -17 45 -23 51 l-11 11 -16 -24z"
            id="path48" />

        <path
            d="M1198 2958 c-2 -7 -1 -67 3 -133 7 -127 27 -232 54 -285 9 -18 23 -55 31 -82 14 -45 30 -73 92 -157 l23 -31 -15 -6 c-9 -3 -39 6 -68 21 -60 32 -126 84 -215 169 l-63 60 -17 -16 -16 -17 12 -43 c13 -46 93 -201 137 -268 31 -47 110 -109 177 -138 l48 -22 -7 -11 -7 -11 -71 5 c-39 2 -91 12 -116 22 -25 9 -65 20 -90 24 -25 4 -50 10 -56 14 -7 4 -17 0 -24 -8 l-12 -14 34 -58 c19 -32 43 -63 54 -68 10 -6 37 -27 58 -48 22 -20 44 -37 49 -37 4 0 32 -11 60 -24 77 -35 108 -45 147 -48 19 -2 33 -7 30 -13 -3 -5 -27 -18 -55 -27 l-50 -17 -80 0 c-44 0 -98 4 -120 9 l-39 9 -12 -10 c-21 -17 -2 -59 46 -102 26 -24 70 -54 96 -67 27 -13 56 -27 64 -32 44 -24 73 -30 149 -32 124 -2 119 -22 -24 -94 -44 -22 -96 -43 -116 -46 -20 -4 -44 -15 -53 -25 l-17 -18 13 -10 c27 -21 90 -44 145 -54 73 -14 202 -5 245 17 38 19 101 63 163 116 26 21 60 39 82 42 l38 7 30 -15 c17 -8 46 -31 64 -50 l35 -36 -28 -98 -27 -97 2 -100 1 -100 25 -50 c14 -27 39 -65 56 -82 l30 -33 13 11 13 10 -34 44 c-18 24 -41 67 -50 96 l-18 52 7 78 c3 43 15 106 25 141 22 75 96 400 103 453 1 11 -1 25 -5 32 l-7 12 -28 -16 -27 -15 -57 11 c-31 7 -68 21 -81 32 l-25 19 -7 49 -7 50 14 27 c7 16 47 56 88 91 41 34 80 75 87 90 7 16 12 42 13 58 0 35 -33 95 -53 95 -7 0 -26 13 -41 29 -15 16 -41 31 -57 35 -47 9 -192 78 -227 108 -18 15 -37 28 -43 28 -5 0 -41 29 -79 65 -38 36 -74 65 -80 65 -6 0 -17 15 -25 33 -7 17 -30 48 -50 67 -20 19 -49 60 -64 90 -16 30 -42 78 -59 105 -17 28 -43 73 -58 100 -40 76 -66 101 -76 73z"
            id="path52" />
        <path
            d="M2326 2361 c-10 -11 -20 -34 -22 -53 -3 -18 -7 -43 -9 -55 -3 -13 -1 -23 5 -23 5 0 12 12 16 28 10 46 13 52 28 52 8 0 21 -9 29 -21 l15 -20 7 11 c4 7 3 16 -3 22 -6 6 -8 16 -6 22 3 7 -6 22 -19 34 l-24 22 -17 -19z"
            id="path56" />
        <path fill="#A51820" transform="translate(750,90) scale(0.40,0.45)" stroke="#000000" stroke-width="100"
            d="M3971 5083 c-142 -592 -390 -1452 -666 -2308 -128 -514 -140 -450 -139 -630 1 -466 256 -792 661 -846 568 -75 938 195 1004 734 25 201 3 321 -145 772 -239 735 -486 1585 -642 2217 -21 87 -41 158 -45 158 -3 0 -16 -44 -28 -97z" />
            
        <path fill="#FFFFFF"
            d="M2270 1378 c-19 -5 -50 -21 -69 -35 -19 -15 -44 -50 -59 -81 -23 -50 -24 -59 -13 -101 7 -25 15 -63 18 -84 3 -21 0 -51 -7 -68 -9 -21 -10 -36 -3 -52 6 -12 16 -35 22 -51 11 -26 15 -28 52 -23 35 5 40 3 33 -11 -4 -10 -9 -34 -12 -56 -3 -29 -1 -37 9 -34 8 3 15 10 15 16 1 7 2 15 3 20 1 4 6 -3 11 -15 5 -13 14 -23 20 -23 5 0 10 9 10 20 0 11 5 20 10 20 6 0 10 -7 10 -15 0 -8 5 -15 10 -15 6 0 10 7 10 15 0 8 5 15 10 15 6 0 10 -7 10 -15 0 -8 5 -15 10 -15 6 0 10 7 10 15 0 8 5 15 10 15 6 0 10 -10 10 -22 1 -23 1 -23 16 -3 14 19 16 19 25 3 6 -10 15 -18 21 -18 7 0 8 12 5 33 -4 17 -9 41 -12 53 -6 19 -3 21 36 20 40 -1 43 1 49 29 4 17 11 39 17 50 8 14 7 27 -5 52 -14 29 -14 39 -3 76 7 23 15 61 18 84 3 23 0 58 -7 78 -7 20 -30 53 -52 73 -21 20 -56 42 -76 49 -20 6 -57 11 -82 11 -25 0 -61 -4 -80 -10z m-35 -358 c3 -5 24 -14 45 -20 22 -6 40 -15 40 -20 0 -5 -17 -17 -37 -25 -21 -9 -49 -15 -63 -13 -16 2 -28 12 -34 30 -7 19 -6 31 4 42 7 9 18 16 26 16 7 0 16 -4 19 -10z m264 -4 c7 -8 11 -27 9 -43 -2 -18 -10 -29 -22 -31 -10 -2 -38 2 -62 8 -24 7 -44 19 -44 26 0 7 18 18 40 24 21 6 42 15 45 20 3 6 10 10 14 10 5 0 14 -6 20 -14z m-123 -121 c7 -27 6 -29 -9 -16 -14 11 -20 11 -32 1 -12 -10 -15 -10 -15 3 0 9 5 28 12 42 9 21 14 23 24 13 7 -7 16 -26 20 -43z"
            id="path50" />
    </g>
</svg>
