<svg height="800" width="598.22266" xml:space="preserve" viewBox="0 0 598.22266 800" y="0px" x="0px" id="Layer_2"
    version="1.1" xmlns="http://www.w3.org/2000/svg" xmlns:svg="http://www.w3.org/2000/svg"
    xmlns:rdf="http://www.w3.org/1999/02/22-rdf-syntax-ns#" xmlns:cc="http://creativecommons.org/ns#"
    xmlns:dc="http://purl.org/dc/elements/1.1/">
    <path stroke-width="0.828157" id="path2"
        d="M 141.27857,800 C 92.95559,697.13458 76.44213,569.20083 74.37174,429.89648 c 54.09523,-8.5383 132.38095,-54.09524 130.9648,-132.38095 -11.38717,-52.67081 -65.4824,-55.51967 -65.4824,-55.51967 -55.51967,0 -54.09524,38.43478 -96.79503,35.58592 C -6.7628404,246.26915 0.35102957,189.32505 0.35102957,189.32505 7.1253596,161.59006 15.35724,136.7619 30.24751,125.26708 186.35517,143.04762 405.19575,51.693582 598.22267,0 c -193.59835,116.72878 -175.10559,288.19876 0,291.81781 C 474.46283,298.9648 379.00113,391.4617 467.25786,536.65424 205.33654,455.51967 137.29513,611.36232 141.27857,800 Z" />
</svg>
