<!-- Generator: Adobe Illustrator 23.0.3, SVG Export Plug-In . SVG Version: 6.00 Build 0)  -->

<svg version="1.1" x="0px" y="0px" viewBox="0 0 951.81848 800" xml:space="preserve" width="951.81848" height="800"
    xmlns="http://www.w3.org/2000/svg" xmlns:svg="http://www.w3.org/2000/svg"
    xmlns:rdf="http://www.w3.org/1999/02/22-rdf-syntax-ns#" xmlns:cc="http://creativecommons.org/ns#"
    xmlns:dc="http://purl.org/dc/elements/1.1/" xmlns:i="&amp;#38;ns_ai;">

    <switch id="switch12" transform="matrix(0.98430041,0,0,0.98430041,-13.780206,-91.648211)">
        <g i:extraneous="self" id="g10">
            <g id="g8">
                <polygon
                    points="317.83,509.52 14,890.46 242.26,700.77 242.26,745.49 431.95,572.76 431.95,437.04 317.83,555.79 "
                    id="polygon2" />
                <polygon
                    points="563.05,572.76 752.74,745.49 752.74,700.77 981,890.46 677.17,509.52 677.17,555.79 563.05,437.04 "
                    id="polygon4" />
                <path
                    d="m 566.13,699.22 h -38.56 c -3.08,-219 43.18,-524.37 -26.22,-606.11 -69.4,81.74 -23.13,387.11 -26.22,606.11 h -38.56 l -4.63,-9.25 c -10.67,2.04 -22.89,10.29 -35.47,20.05 12.53,11.76 24.46,18.52 35.47,21.59 l 4.63,-10.8 h 46.27 l -1.54,98.7 c 15.42,15.42 13.88,38.56 -1.54,50.89 2.71,12.76 9.05,24.76 21.59,35.47 12.54,-10.71 18.88,-22.72 21.59,-35.47 -15.42,-12.34 -16.96,-35.47 -1.54,-50.89 l -1.54,-98.7 h 46.27 l 4.63,10.8 c 11.01,-3.08 22.94,-9.84 35.47,-21.59 -12.59,-9.76 -24.8,-18.01 -35.47,-20.05 z"
                    id="path6" />
            </g>
        </g>
    </switch>

</svg>
