<!-- Generator: Adobe Illustrator 25.2.0, SVG Export Plug-In . SVG Version: 6.00 Build 0)  -->

<svg version="1.1" x="0px" y="0px" viewBox="0 0 1000 1000" enable-background="new 0 0 1000 1000" xml:space="preserve"
    xmlns="http://www.w3.org/2000/svg" xmlns:xlink="http://www.w3.org/1999/xlink"
    xmlns:svg="http://www.w3.org/2000/svg">
    <g id="g12">
        <path
            d="M958.37,286.47v629.47c-224.15,1.17-322.21-58.37-378.24-59.54c-68.51-1.16-43.48,38.1-79.97,40.81v-0.3    c-37.36-2.33-11.67-42.03-80.55-40.86c-56.04,1.17-154.1,60.71-378.24,59.54V286.12H0.74v666.83L999,953.3V286.47H958.37z"
            id="path8" />
        <path
            d="M499.58,834.96v0.66c110.91-59.77,130.75,28.95,414.43,28.95V261.02c-275.01-5.83-331.34-100.05-413.98-10.99    c-82.82-89.65-138.94,4.81-414.31,10.64v603.56C368.91,864.23,389.19,775.82,499.58,834.96z M464.98,500.74l34.48-226.68    l35.55,227.07l226.65,35.49l-227.09,34.54l-35.46,226.49l-34.52-226.93l-226.52-34.46L464.98,500.74z"
            id="path10" />
    </g>
</svg>
