<svg xmlns="http://www.w3.org/2000/svg" xmlns:svg="http://www.w3.org/2000/svg" version="1.0" width="793.000000pt" height="696.000000pt" viewBox="0 0 793.000000 696.000000" preserveAspectRatio="xMidYMid meet" id="svg44">
  <g transform="translate(0.000000,696.000000) scale(0.100000,-0.100000)" fill="#000000" stroke="none" id="g42">
    <path d="M3906 6730 c-43 -26 -82 -52 -87 -57 -7 -7 -30 -512 -24 -521 1 -1 48 32 104 73 l102 76 82 -75 82 -75 6 117 c4 64 7 176 8 249 l1 132 -94 65 c-52 36 -96 66 -98 65 -2 0 -38 -22 -82 -49z" id="path4"/>
    <path d="M4564 6625 l-92 -55 -6 -128 c-3 -70 -8 -162 -10 -204 -5 -94 -10 -93 90 -14 l81 64 84 -84 84 -85 6 103 c4 57 7 158 8 225 l1 122 -75 56 c-41 30 -76 55 -77 55 -2 -1 -44 -25 -94 -55z" id="path6"/>
    <path d="M3162 6537 l-72 -72 11 -240 c7 -132 14 -242 16 -244 2 -3 37 28 77 68 l74 73 71 -52 c39 -28 71 -54 71 -57 0 -3 -6 -1 -12 4 -7 6 -39 29 -72 53 l-58 42 -90 -89 -89 -89 7 -288 7 -288 81 86 81 86 120 -85 c65 -46 120 -83 120 -82 9 14 -28 594 -38 606 -8 9 -15 39 -16 66 -1 28 -9 142 -17 254 -7 112 -14 205 -14 207 0 2 -33 22 -72 45 -40 23 -82 48 -93 55 -19 13 -27 8 -93 -59z" id="path8"/>
    <path d="M3640 6126 l0 -274 -22 -6 c-13 -3 -32 -6 -43 -6 -46 -1 -46 -3 -35 -235 13 -257 2 -229 83 -215 l64 12 6 60 c3 33 10 65 16 71 7 7 11 101 11 284 0 206 3 283 14 315 8 24 16 94 19 156 l5 112 -59 0 -59 0 0 -274z" id="path10"/>
    <path d="M4225 6258 c3 -79 10 -278 15 -443 11 -399 13 -411 52 -419 40 -8 39 -11 49 86 5 46 13 117 18 158 5 41 10 103 10 137 l1 62 -35 7 -35 6 0 274 0 274 -41 0 -41 0 7 -142z" id="path12"/>
    <path d="M3883 6204 l-113 -84 0 -128 c0 -70 -3 -199 -6 -287 l-6 -160 103 102 104 103 118 -118 118 -117 -6 300 -6 300 -92 87 c-109 104 -79 104 -214 2z" id="path14"/>
    <path d="M4529 6200 l-96 -79 -6 -88 c-12 -167 -20 -443 -13 -443 4 0 22 10 39 23 18 13 62 44 98 70 l66 46 39 -42 39 -42 -39 37 -39 36 -86 -59 c-47 -33 -98 -70 -114 -82 l-28 -22 -39 -504 c-22 -277 -39 -505 -37 -507 1 -1 60 44 130 102 l127 104 122 -136 123 -135 3 506 2 507 -66 76 c-63 73 -63 74 -7 13 l60 -63 6 188 c4 104 7 232 7 284 l0 95 -97 97 -98 96 -96 -78z" id="path16"/>
    <path d="M5121 5905 c-74 -129 -136 -235 -138 -235 -2 0 -30 11 -63 24 l-60 25 0 -243 0 -243 83 -41 c45 -22 122 -66 170 -96 71 -45 94 -54 117 -49 45 8 222 -133 247 -197 25 -66 168 -220 204 -220 35 0 53 -23 46 -59 -5 -23 7 -48 69 -141 553 -838 448 -1949 -255 -2691 -83 -88 -89 -97 -68 -103 42 -10 100 -130 79 -163 -10 -16 -1748 -853 -1772 -853 -38 0 -1550 852 -1556 877 -7 26 20 103 48 139 24 30 50 30 102 0 l42 -24 23 33 23 34 -78 85 c-791 865 -777 2140 33 2997 l98 104 -6 55 c-11 87 -10 165 2 177 8 8 7 81 -2 262 -10 192 -10 256 -1 276 8 17 12 89 12 206 0 173 1 180 22 198 62 53 72 62 63 58 -10 -4 -487 -277 -493 -282 -1 -1 59 -109 135 -240 l137 -238 -30 -26 c-189 -164 -254 -225 -330 -312 -49 -57 -101 -116 -115 -133 l-26 -30 -238 137 c-131 76 -239 136 -240 135 -13 -16 -326 -570 -324 -572 2 -1 103 -60 224 -129 121 -70 226 -131 234 -136 11 -7 7 -28 -27 -117 -56 -150 -142 -496 -142 -571 0 -2 -124 -3 -275 -3 l-275 0 0 -330 0 -330 275 0 c164 0 275 -4 275 -9 0 -82 94 -454 149 -594 17 -43 31 -79 31 -80 0 -2 -106 -64 -235 -138 -164 -93 -233 -138 -229 -148 3 -11 310 -547 319 -559 1 -1 109 59 239 134 l236 136 23 -28 c107 -138 251 -286 389 -403 74 -61 86 -76 78 -91 -5 -10 -66 -116 -135 -235 -69 -120 -124 -219 -123 -220 16 -13 570 -326 572 -324 1 2 60 105 131 227 148 258 129 242 231 202 136 -55 512 -150 590 -150 2 0 4 -121 4 -270 l0 -270 330 0 330 0 0 270 c0 160 4 270 9 270 82 0 454 94 594 149 97 39 72 61 223 -201 70 -123 129 -225 130 -227 2 -2 556 311 572 324 1 1 -58 107 -132 235 l-134 233 79 64 c106 85 258 237 351 349 l76 92 232 -134 c128 -74 234 -133 235 -132 9 12 316 548 319 559 4 10 -62 53 -219 142 -265 152 -243 127 -204 224 55 140 149 512 149 594 0 5 110 9 270 9 l270 0 0 330 0 330 -270 0 c-148 0 -270 2 -270 4 0 78 -95 454 -150 590 -40 102 -56 83 202 231 122 71 225 130 227 131 2 2 -311 556 -324 572 -1 1 -100 -54 -220 -123 -119 -69 -225 -130 -235 -135 -15 -8 -30 4 -91 78 -117 138 -265 282 -403 389 l-28 23 136 236 c75 130 135 238 134 239 -10 8 -551 317 -561 320 -7 3 -64 -86 -146 -230z" id="path18"/>
    <path d="M2623 6049 l-63 -51 1 -91 c1 -51 4 -129 7 -175 l7 -83 73 62 74 62 74 -74 c89 -89 87 -106 38 258 -4 36 -118 147 -146 143 -2 -1 -31 -23 -65 -51z" id="path20"/>
    <path d="M2626 5683 l-88 -76 6 -76 c3 -42 8 -134 11 -206 3 -71 8 -149 11 -172 l5 -41 41 41 c25 26 19 16 -16 -25 l-56 -66 45 -439 c25 -241 46 -444 48 -451 1 -7 48 50 105 127 57 78 106 141 110 141 4 0 52 -45 108 -101 80 -79 103 -97 112 -87 14 18 -100 825 -120 843 -7 7 -63 46 -124 88 l-111 76 -34 -32 -34 -32 34 37 34 37 111 -75 c133 -89 124 -106 97 181 l-21 209 -87 88 c-104 104 -79 103 -187 11z" id="path22"/>
    <path d="M2911 5710 c0 -19 7 -53 16 -75 13 -35 51 -334 52 -423 l1 -33 30 16 c29 15 30 18 30 85 0 39 5 72 11 76 9 5 4 331 -6 342 -1 1 -18 -5 -38 -13 -49 -20 -50 -20 -75 23 l-22 37 1 -35z" id="path24"/>
    <path d="M3852 5617 l-111 -112 -15 -520 c-7 -286 -13 -521 -11 -523 2 -2 58 67 125 152 l121 156 137 -105 c134 -103 137 -104 141 -77 3 26 -13 533 -25 784 l-7 128 -122 114 -122 115 -111 -112z" id="path26"/>
    <path d="M3171 5416 l-91 -92 35 -454 c19 -250 36 -466 38 -480 2 -20 17 -4 95 98 90 118 95 122 115 109 86 -55 270 -158 274 -153 5 5 -86 755 -104 854 -5 30 -21 43 -138 122 l-132 88 -92 -92z" id="path28"/>
    <path d="M5160 4850 l-80 -161 16 -122 c20 -148 10 -139 93 -84 64 43 79 48 193 67 67 12 124 22 125 23 3 3 -74 273 -81 285 -3 5 -46 42 -96 81 l-90 71 -80 -160z" id="path30"/>
    <path d="M3820 4575 l-141 -176 -32 19 c-18 11 -79 45 -137 77 -58 32 -119 66 -137 77 l-31 19 -143 -187 -142 -186 -101 101 c-56 56 -104 101 -108 101 -3 0 -56 -68 -118 -151 l-111 -151 133 -394 c73 -217 136 -394 139 -394 4 0 214 115 468 255 l461 255 601 -320 602 -320 36 29 c66 53 89 85 129 183 56 139 132 255 243 372 l97 101 -43 55 c-39 50 -47 56 -91 61 l-49 6 45 2 45 1 30 98 c39 126 109 286 173 396 52 87 52 88 24 82 -15 -3 -109 -19 -209 -36 l-183 -30 -114 -74 c-63 -41 -117 -83 -119 -93 -22 -77 -69 -304 -65 -309 10 -10 187 -34 258 -35 36 -1 76 -5 90 -9 38 -12 -139 -1 -259 16 -57 9 -109 18 -116 20 -8 3 -29 -24 -54 -69 l-41 -74 -19 -219 c-25 -291 -25 -241 -1 296 l20 451 -140 154 -141 154 -140 -109 -139 -110 -112 82 c-62 45 -136 99 -165 120 l-52 38 -141 -175z" id="path32"/>
    <path d="M3293 3536 c-287 -161 -531 -299 -542 -307 -33 -24 -37 -75 -8 -94 25 -16 34 -11 551 279 l526 296 581 -306 c637 -335 626 -330 617 -241 -3 25 -1094 631 -1193 663 -5 1 -245 -129 -532 -290z" id="path34"/>
    <path d="M3318 3411 c-273 -153 -506 -284 -517 -292 -18 -12 135 -768 161 -794 2 -2 203 61 446 141 l441 145 393 -127 c216 -70 399 -127 406 -128 15 -1 325 725 314 736 -8 7 -1140 598 -1144 597 -2 0 -227 -125 -500 -278z" id="path36"/>
    <path d="M3406 2450 c-260 -84 -435 -145 -446 -157 -9 -10 -130 -177 -268 -370 l-251 -353 42 -24 c23 -13 324 -182 669 -375 l628 -351 677 321 c373 177 720 341 771 365 l93 43 -325 390 -325 389 -93 30 c-235 77 -727 232 -735 231 -4 -1 -201 -63 -437 -139z" id="path38"/>
    <path d="M2286 1568 c-13 -29 -21 -56 -17 -60 3 -4 345 -196 758 -427 l753 -421 862 416 c475 229 866 419 870 423 10 9 -50 97 -63 93 -6 -2 -384 -180 -840 -397 l-829 -395 -693 386 c-380 212 -711 397 -735 410 l-42 25 -24 -53z" id="path40"/>
  </g>
</svg>
