<svg version="1.0" width="800.000000pt" height="800.000000pt" viewBox="0 0 800.000000 800.000000"
    preserveAspectRatio="xMidYMid meet" id="svg22" xmlns="http://www.w3.org/2000/svg"
    xmlns:svg="http://www.w3.org/2000/svg">
    <g transform="translate(0.000000,800.000000) scale(0.100000,-0.100000)" fill="#000000" stroke="none" id="g20">
        <path
            d="M2500 7570 l0 -290 400 0 400 0 0 -790 c0 -434 1 -790 3 -790 2 0 32 12 68 26 418 171 887 163 1317 -23 9 -4 12 157 12 786 l0 791 400 0 400 0 0 290 0 290 -1500 0 -1500 0 0 -290z"
            id="path4" />
        <path d="M2500 5673 l0 -726 56 89 c129 207 325 410 498 520 l46 29 0 408 0 407 -300 0 -300 0 0 -727z"
            id="path6" />
        <path d="M4900 5996 l0 -405 87 -62 c174 -126 352 -317 461 -496 l52 -86 0 727 0 726 -300 0 -300 0 0 -404z"
            id="path8" />
        <path
            d="M3855 5644 c-540 -77 -953 -355 -1177 -791 l-53 -103 -662 0 -663 0 0 325 0 325 -300 0 -300 0 0 -625 0 -625 1149 0 1148 0 7 79 c27 329 211 620 496 785 113 66 120 67 108 14 -61 -265 201 -527 470 -469 214 46 361 265 314 469 -5 23 -9 42 -7 42 15 0 96 -43 165 -87 253 -165 420 -448 446 -755 l7 -78 1148 0 1149 0 0 625 0 625 -300 0 -300 0 0 -325 0 -325 -663 0 -663 0 -41 83 c-198 400 -583 691 -1038 787 -97 20 -365 35 -440 24z"
            id="path10" />
        <path
            d="M700 3225 l0 -625 300 0 300 0 0 325 0 325 850 0 850 0 0 -200 0 -200 1000 0 1000 0 0 200 0 200 850 0 850 0 0 -325 0 -325 300 0 300 0 0 625 0 625 -3300 0 -3300 0 0 -625z"
            id="path12" />
        <path d="M2500 2325 l0 -725 300 0 300 0 0 525 0 525 -150 0 -150 0 0 200 0 200 -150 0 -150 0 0 -725z"
            id="path14" />
        <path d="M5200 2850 l0 -200 -150 0 -150 0 0 -525 0 -525 300 0 300 0 0 725 0 725 -150 0 -150 0 0 -200z"
            id="path16" />
        <path
            d="M3300 1765 l0 -885 -400 0 -400 0 0 -290 0 -290 1500 0 1500 0 0 290 0 290 -400 0 -400 0 0 885 0 885 -700 0 -700 0 0 -885z"
            id="path18" />
    </g>
</svg>