<svg xmlns="http://www.w3.org/2000/svg" xmlns:svg="http://www.w3.org/2000/svg" width="210" height="190" viewBox="0 0 210 190" version="1.1" id="svg1" xml:space="preserve">
    <defs id="defs1"/>
    <g id="g1" transform="translate(3.428807,-29.226498)">
        <path style="fill:#5c7668;stroke:none" d="m 90.112874,55.781848 0.264584,10.58333 h 25.400002 l 0.26458,-10.58333 -10.84792,1.05446 -15.081246,-1.05446 M 11.002455,110.5506 c 9.825765,5.17533 19.40268,10.95505 29.104168,16.36721 4.277274,2.38616 9.061317,5.79907 13.758333,7.1807 L 48.57329,123.77976 c 18.14865,7.55593 36.276913,14.51105 56.35625,14.01904 18.83543,-0.46152 35.55872,-6.90239 52.65209,-14.01904 l -5.29167,10.31875 c 4.79131,-1.40938 9.64155,-4.92127 14.02292,-7.32748 9.65983,-5.3051 19.11469,-11.04451 28.83958,-16.22043 -1.49779,-2.95623 -6.2448,-5.26905 -8.99583,-6.99145 -7.5519,-4.728172 -15.47354,-8.908662 -23.28334,-13.197742 -11.16017,-6.12907 -22.15733,-13.04249 -34.39583,-16.84573 -16.72968,-5.19892 -37.199137,-4.90633 -53.71042,0.97013 -10.430016,3.71211 -19.966813,9.50849 -29.633334,14.81727 -8.333838,4.57687 -16.767293,9.07919 -24.870834,14.053752 -2.793828,1.71506 -7.797117,4.19269 -9.260417,7.19377 M 92.494124,79.858928 c 0,9.90821 0.781065,19.39507 4.059798,28.839582 1.689553,4.86682 4.516988,9.23603 6.258948,14.02292 h 0.52917 c 1.61602,-4.43941 4.30168,-8.47132 5.90229,-12.96458 3.48731,-9.789672 4.41646,-19.594012 4.41646,-29.897922 14.93184,0.12359 28.91939,7.92728 39.6875,17.68216 2.66066,2.41031 5.0183,5.155302 7.23317,7.982422 0.60336,0.77015 2.00101,2.09094 1.68162,3.175 -0.33293,1.13001 -1.82252,2.21722 -2.64033,3.0227 -2.52225,2.48419 -5.15807,4.73446 -8.12654,6.67584 -12.29597,8.04156 -29.47142,10.6045 -43.92083,10.67418 -16.79139,0.081 -34.842284,-0.93146 -50.006257,-8.93765 -3.926016,-2.07284 -7.45544,-4.86778 -10.583333,-7.99548 -0.922986,-0.92293 -2.713457,-2.14841 -3.093949,-3.43959 -0.320406,-1.08727 1.080057,-2.39831 1.678753,-3.175 2.194351,-2.84672 4.573518,-5.573382 7.236029,-7.982422 10.779809,-9.75355 24.742071,-17.55846 39.687501,-17.68216 m 1.852084,60.854162 2.645833,33.3375 -20.6375,-6.35 6.593347,8.46667 13.263678,15.61042 4.637144,5.29166 2.22854,1.79737 2.19221,-1.79737 4.65266,-5.29166 13.03359,-15.34584 6.84467,-8.73125 -20.6375,6.35 2.64583,-33.3375 z" id="path1"/>
    </g>
</svg>
